solid Cabo Ferramenta Fixo
   facet normal 9.983119e-001 -5.807913e-002 0.000000e+000
      outer loop
         vertex 4.000000e+000 3.900000e+001 4.000000e+000
         vertex 4.000000e+000 3.900000e+001 0.000000e+000
         vertex 4.121538e+000 4.038919e+001 4.000000e+000
      endloop
   endfacet
   facet normal 9.932307e-001 -1.161583e-001 0.000000e+000
      outer loop
         vertex 4.121538e+000 4.038919e+001 4.000000e+000
         vertex 4.000000e+000 3.900000e+001 0.000000e+000
         vertex 4.121538e+000 4.038919e+001 0.000000e+000
      endloop
   endfacet
   facet normal 9.730600e-001 -2.305519e-001 0.000000e+000
      outer loop
         vertex 4.121538e+000 4.038919e+001 4.000000e+000
         vertex 4.121538e+000 4.038919e+001 0.000000e+000
         vertex 4.482459e+000 4.173616e+001 4.000000e+000
      endloop
   endfacet
   facet normal 9.579706e-001 -2.868663e-001 0.000000e+000
      outer loop
         vertex 4.482459e+000 4.173616e+001 4.000000e+000
         vertex 4.121538e+000 4.038919e+001 0.000000e+000
         vertex 4.482459e+000 4.173616e+001 0.000000e+000
      endloop
   endfacet
   facet normal 9.182422e-001 -3.960194e-001 0.000000e+000
      outer loop
         vertex 4.482459e+000 4.173616e+001 4.000000e+000
         vertex 4.482459e+000 4.173616e+001 0.000000e+000
         vertex 5.071796e+000 4.300000e+001 4.000000e+000
      endloop
   endfacet
   facet normal 8.936031e-001 -4.488580e-001 0.000000e+000
      outer loop
         vertex 5.071796e+000 4.300000e+001 4.000000e+000
         vertex 4.482459e+000 4.173616e+001 0.000000e+000
         vertex 5.071796e+000 4.300000e+001 0.000000e+000
      endloop
   endfacet
   facet normal 8.355240e-001 -5.494540e-001 0.000000e+000
      outer loop
         vertex 5.071796e+000 4.300000e+001 4.000000e+000
         vertex 5.071796e+000 4.300000e+001 0.000000e+000
         vertex 5.871646e+000 4.414231e+001 4.000000e+000
      endloop
   endfacet
   facet normal 8.020838e-001 -5.972114e-001 0.000000e+000
      outer loop
         vertex 5.871646e+000 4.414231e+001 4.000000e+000
         vertex 5.071796e+000 4.300000e+001 0.000000e+000
         vertex 5.871646e+000 4.414231e+001 0.000000e+000
      endloop
   endfacet
   facet normal 7.274188e-001 -6.861938e-001 0.000000e+000
      outer loop
         vertex 5.871646e+000 4.414231e+001 4.000000e+000
         vertex 5.871646e+000 4.414231e+001 0.000000e+000
         vertex 6.857701e+000 4.512836e+001 4.000000e+000
      endloop
   endfacet
   facet normal 6.861938e-001 -7.274188e-001 0.000000e+000
      outer loop
         vertex 6.857701e+000 4.512836e+001 4.000000e+000
         vertex 5.871646e+000 4.414231e+001 0.000000e+000
         vertex 6.857701e+000 4.512836e+001 0.000000e+000
      endloop
   endfacet
   facet normal 5.972114e-001 -8.020838e-001 0.000000e+000
      outer loop
         vertex 6.857701e+000 4.512836e+001 4.000000e+000
         vertex 6.857701e+000 4.512836e+001 0.000000e+000
         vertex 8.000001e+000 4.592821e+001 4.000000e+000
      endloop
   endfacet
   facet normal 5.494540e-001 -8.355240e-001 0.000000e+000
      outer loop
         vertex 8.000001e+000 4.592821e+001 4.000000e+000
         vertex 6.857701e+000 4.512836e+001 0.000000e+000
         vertex 8.000001e+000 4.592821e+001 0.000000e+000
      endloop
   endfacet
   facet normal 4.488580e-001 -8.936031e-001 0.000000e+000
      outer loop
         vertex 8.000001e+000 4.592821e+001 4.000000e+000
         vertex 8.000001e+000 4.592821e+001 0.000000e+000
         vertex 9.263840e+000 4.651754e+001 4.000000e+000
      endloop
   endfacet
   facet normal 3.960194e-001 -9.182422e-001 0.000000e+000
      outer loop
         vertex 9.263840e+000 4.651754e+001 4.000000e+000
         vertex 8.000001e+000 4.592821e+001 0.000000e+000
         vertex 9.263840e+000 4.651754e+001 0.000000e+000
      endloop
   endfacet
   facet normal 2.868663e-001 -9.579706e-001 0.000000e+000
      outer loop
         vertex 9.263840e+000 4.651754e+001 4.000000e+000
         vertex 9.263840e+000 4.651754e+001 0.000000e+000
         vertex 1.061082e+001 4.687846e+001 4.000000e+000
      endloop
   endfacet
   facet normal 2.305519e-001 -9.730600e-001 0.000000e+000
      outer loop
         vertex 1.061082e+001 4.687846e+001 4.000000e+000
         vertex 9.263840e+000 4.651754e+001 0.000000e+000
         vertex 1.061082e+001 4.687846e+001 0.000000e+000
      endloop
   endfacet
   facet normal 1.161583e-001 -9.932307e-001 0.000000e+000
      outer loop
         vertex 1.061082e+001 4.687846e+001 4.000000e+000
         vertex 1.061082e+001 4.687846e+001 0.000000e+000
         vertex 1.200000e+001 4.700000e+001 4.000000e+000
      endloop
   endfacet
   facet normal 5.807913e-002 -9.983119e-001 0.000000e+000
      outer loop
         vertex 1.200000e+001 4.700000e+001 4.000000e+000
         vertex 1.061082e+001 4.687846e+001 0.000000e+000
         vertex 1.200000e+001 4.700000e+001 0.000000e+000
      endloop
   endfacet
   facet normal -5.807913e-002 -9.983119e-001 0.000000e+000
      outer loop
         vertex 1.200000e+001 4.700000e+001 4.000000e+000
         vertex 1.200000e+001 4.700000e+001 0.000000e+000
         vertex 1.338918e+001 4.687846e+001 4.000000e+000
      endloop
   endfacet
   facet normal -1.161583e-001 -9.932307e-001 0.000000e+000
      outer loop
         vertex 1.338918e+001 4.687846e+001 4.000000e+000
         vertex 1.200000e+001 4.700000e+001 0.000000e+000
         vertex 1.338918e+001 4.687846e+001 0.000000e+000
      endloop
   endfacet
   facet normal -2.305519e-001 -9.730600e-001 0.000000e+000
      outer loop
         vertex 1.338918e+001 4.687846e+001 4.000000e+000
         vertex 1.338918e+001 4.687846e+001 0.000000e+000
         vertex 1.473616e+001 4.651754e+001 4.000000e+000
      endloop
   endfacet
   facet normal -2.868663e-001 -9.579706e-001 0.000000e+000
      outer loop
         vertex 1.473616e+001 4.651754e+001 4.000000e+000
         vertex 1.338918e+001 4.687846e+001 0.000000e+000
         vertex 1.473616e+001 4.651754e+001 0.000000e+000
      endloop
   endfacet
   facet normal -3.960194e-001 -9.182422e-001 0.000000e+000
      outer loop
         vertex 1.473616e+001 4.651754e+001 4.000000e+000
         vertex 1.473616e+001 4.651754e+001 0.000000e+000
         vertex 1.600000e+001 4.592821e+001 4.000000e+000
      endloop
   endfacet
   facet normal -4.488580e-001 -8.936031e-001 0.000000e+000
      outer loop
         vertex 1.600000e+001 4.592821e+001 4.000000e+000
         vertex 1.473616e+001 4.651754e+001 0.000000e+000
         vertex 1.600000e+001 4.592821e+001 0.000000e+000
      endloop
   endfacet
   facet normal -5.494540e-001 -8.355240e-001 0.000000e+000
      outer loop
         vertex 1.600000e+001 4.592821e+001 4.000000e+000
         vertex 1.600000e+001 4.592821e+001 0.000000e+000
         vertex 1.714230e+001 4.512836e+001 4.000000e+000
      endloop
   endfacet
   facet normal -5.972114e-001 -8.020838e-001 0.000000e+000
      outer loop
         vertex 1.714230e+001 4.512836e+001 4.000000e+000
         vertex 1.600000e+001 4.592821e+001 0.000000e+000
         vertex 1.714230e+001 4.512836e+001 0.000000e+000
      endloop
   endfacet
   facet normal -6.861938e-001 -7.274188e-001 0.000000e+000
      outer loop
         vertex 1.714230e+001 4.512836e+001 4.000000e+000
         vertex 1.714230e+001 4.512836e+001 0.000000e+000
         vertex 1.812836e+001 4.414231e+001 4.000000e+000
      endloop
   endfacet
   facet normal -7.274188e-001 -6.861938e-001 0.000000e+000
      outer loop
         vertex 1.812836e+001 4.414231e+001 4.000000e+000
         vertex 1.714230e+001 4.512836e+001 0.000000e+000
         vertex 1.812836e+001 4.414231e+001 0.000000e+000
      endloop
   endfacet
   facet normal -8.020838e-001 -5.972114e-001 0.000000e+000
      outer loop
         vertex 1.812836e+001 4.414231e+001 4.000000e+000
         vertex 1.812836e+001 4.414231e+001 0.000000e+000
         vertex 1.892820e+001 4.300000e+001 4.000000e+000
      endloop
   endfacet
   facet normal -8.355240e-001 -5.494540e-001 0.000000e+000
      outer loop
         vertex 1.892820e+001 4.300000e+001 4.000000e+000
         vertex 1.812836e+001 4.414231e+001 0.000000e+000
         vertex 1.892820e+001 4.300000e+001 0.000000e+000
      endloop
   endfacet
   facet normal -8.936031e-001 -4.488580e-001 0.000000e+000
      outer loop
         vertex 1.892820e+001 4.300000e+001 4.000000e+000
         vertex 1.892820e+001 4.300000e+001 0.000000e+000
         vertex 1.951754e+001 4.173616e+001 4.000000e+000
      endloop
   endfacet
   facet normal -9.182422e-001 -3.960194e-001 0.000000e+000
      outer loop
         vertex 1.951754e+001 4.173616e+001 4.000000e+000
         vertex 1.892820e+001 4.300000e+001 0.000000e+000
         vertex 1.951754e+001 4.173616e+001 0.000000e+000
      endloop
   endfacet
   facet normal -9.579706e-001 -2.868663e-001 0.000000e+000
      outer loop
         vertex 1.951754e+001 4.173616e+001 4.000000e+000
         vertex 1.951754e+001 4.173616e+001 0.000000e+000
         vertex 1.987846e+001 4.038919e+001 4.000000e+000
      endloop
   endfacet
   facet normal -9.730600e-001 -2.305519e-001 0.000000e+000
      outer loop
         vertex 1.987846e+001 4.038919e+001 4.000000e+000
         vertex 1.951754e+001 4.173616e+001 0.000000e+000
         vertex 1.987846e+001 4.038919e+001 0.000000e+000
      endloop
   endfacet
   facet normal -9.932307e-001 -1.161583e-001 0.000000e+000
      outer loop
         vertex 1.987846e+001 4.038919e+001 4.000000e+000
         vertex 1.987846e+001 4.038919e+001 0.000000e+000
         vertex 2.000000e+001 3.900000e+001 4.000000e+000
      endloop
   endfacet
   facet normal -9.983119e-001 -5.807913e-002 0.000000e+000
      outer loop
         vertex 2.000000e+001 3.900000e+001 4.000000e+000
         vertex 1.987846e+001 4.038919e+001 0.000000e+000
         vertex 2.000000e+001 3.900000e+001 0.000000e+000
      endloop
   endfacet
   facet normal -1.000000e+000 -2.569961e-016 0.000000e+000
      outer loop
         vertex 2.000000e+001 1.200000e+001 4.000000e+000
         vertex 2.000000e+001 3.900000e+001 4.000000e+000
         vertex 2.000000e+001 1.200000e+001 0.000000e+000
      endloop
   endfacet
   facet normal -1.000000e+000 -2.569961e-016 0.000000e+000
      outer loop
         vertex 2.000000e+001 1.200000e+001 0.000000e+000
         vertex 2.000000e+001 3.900000e+001 4.000000e+000
         vertex 2.000000e+001 3.900000e+001 0.000000e+000
      endloop
   endfacet
   facet normal -9.983119e-001 5.807913e-002 0.000000e+000
      outer loop
         vertex 2.000000e+001 1.200000e+001 4.000000e+000
         vertex 2.000000e+001 1.200000e+001 0.000000e+000
         vertex 1.987846e+001 1.061082e+001 4.000000e+000
      endloop
   endfacet
   facet normal -9.932307e-001 1.161583e-001 0.000000e+000
      outer loop
         vertex 1.987846e+001 1.061082e+001 4.000000e+000
         vertex 2.000000e+001 1.200000e+001 0.000000e+000
         vertex 1.987846e+001 1.061082e+001 0.000000e+000
      endloop
   endfacet
   facet normal -9.730600e-001 2.305519e-001 0.000000e+000
      outer loop
         vertex 1.987846e+001 1.061082e+001 4.000000e+000
         vertex 1.987846e+001 1.061082e+001 0.000000e+000
         vertex 1.951754e+001 9.263840e+000 4.000000e+000
      endloop
   endfacet
   facet normal -9.579706e-001 2.868663e-001 0.000000e+000
      outer loop
         vertex 1.951754e+001 9.263840e+000 4.000000e+000
         vertex 1.987846e+001 1.061082e+001 0.000000e+000
         vertex 1.951754e+001 9.263840e+000 0.000000e+000
      endloop
   endfacet
   facet normal -9.182422e-001 3.960194e-001 0.000000e+000
      outer loop
         vertex 1.951754e+001 9.263840e+000 4.000000e+000
         vertex 1.951754e+001 9.263840e+000 0.000000e+000
         vertex 1.892820e+001 8.000001e+000 4.000000e+000
      endloop
   endfacet
   facet normal -8.936031e-001 4.488580e-001 0.000000e+000
      outer loop
         vertex 1.892820e+001 8.000001e+000 4.000000e+000
         vertex 1.951754e+001 9.263840e+000 0.000000e+000
         vertex 1.892820e+001 8.000001e+000 0.000000e+000
      endloop
   endfacet
   facet normal -8.355240e-001 5.494540e-001 0.000000e+000
      outer loop
         vertex 1.892820e+001 8.000001e+000 4.000000e+000
         vertex 1.892820e+001 8.000001e+000 0.000000e+000
         vertex 1.812836e+001 6.857701e+000 4.000000e+000
      endloop
   endfacet
   facet normal -8.020838e-001 5.972114e-001 0.000000e+000
      outer loop
         vertex 1.812836e+001 6.857701e+000 4.000000e+000
         vertex 1.892820e+001 8.000001e+000 0.000000e+000
         vertex 1.812836e+001 6.857701e+000 0.000000e+000
      endloop
   endfacet
   facet normal -7.274188e-001 6.861938e-001 0.000000e+000
      outer loop
         vertex 1.812836e+001 6.857701e+000 4.000000e+000
         vertex 1.812836e+001 6.857701e+000 0.000000e+000
         vertex 1.714230e+001 5.871646e+000 4.000000e+000
      endloop
   endfacet
   facet normal -6.861938e-001 7.274188e-001 0.000000e+000
      outer loop
         vertex 1.714230e+001 5.871646e+000 4.000000e+000
         vertex 1.812836e+001 6.857701e+000 0.000000e+000
         vertex 1.714230e+001 5.871646e+000 0.000000e+000
      endloop
   endfacet
   facet normal -5.972114e-001 8.020838e-001 0.000000e+000
      outer loop
         vertex 1.714230e+001 5.871646e+000 4.000000e+000
         vertex 1.714230e+001 5.871646e+000 0.000000e+000
         vertex 1.600000e+001 5.071796e+000 4.000000e+000
      endloop
   endfacet
   facet normal -5.494540e-001 8.355240e-001 0.000000e+000
      outer loop
         vertex 1.600000e+001 5.071796e+000 4.000000e+000
         vertex 1.714230e+001 5.871646e+000 0.000000e+000
         vertex 1.600000e+001 5.071796e+000 0.000000e+000
      endloop
   endfacet
   facet normal -4.488580e-001 8.936031e-001 0.000000e+000
      outer loop
         vertex 1.600000e+001 5.071796e+000 4.000000e+000
         vertex 1.600000e+001 5.071796e+000 0.000000e+000
         vertex 1.473616e+001 4.482463e+000 4.000000e+000
      endloop
   endfacet
   facet normal -3.960194e-001 9.182422e-001 0.000000e+000
      outer loop
         vertex 1.473616e+001 4.482463e+000 4.000000e+000
         vertex 1.600000e+001 5.071796e+000 0.000000e+000
         vertex 1.473616e+001 4.482463e+000 0.000000e+000
      endloop
   endfacet
   facet normal -2.868663e-001 9.579706e-001 0.000000e+000
      outer loop
         vertex 1.473616e+001 4.482463e+000 4.000000e+000
         vertex 1.473616e+001 4.482463e+000 0.000000e+000
         vertex 1.338918e+001 4.121542e+000 4.000000e+000
      endloop
   endfacet
   facet normal -2.305519e-001 9.730600e-001 0.000000e+000
      outer loop
         vertex 1.338918e+001 4.121542e+000 4.000000e+000
         vertex 1.473616e+001 4.482463e+000 0.000000e+000
         vertex 1.338918e+001 4.121542e+000 0.000000e+000
      endloop
   endfacet
   facet normal -1.161583e-001 9.932307e-001 0.000000e+000
      outer loop
         vertex 1.338918e+001 4.121542e+000 4.000000e+000
         vertex 1.338918e+001 4.121542e+000 0.000000e+000
         vertex 1.200000e+001 4.000000e+000 4.000000e+000
      endloop
   endfacet
   facet normal -5.807913e-002 9.983119e-001 0.000000e+000
      outer loop
         vertex 1.200000e+001 4.000000e+000 4.000000e+000
         vertex 1.338918e+001 4.121542e+000 0.000000e+000
         vertex 1.200000e+001 4.000000e+000 0.000000e+000
      endloop
   endfacet
   facet normal 5.807913e-002 9.983119e-001 0.000000e+000
      outer loop
         vertex 1.200000e+001 4.000000e+000 4.000000e+000
         vertex 1.200000e+001 4.000000e+000 0.000000e+000
         vertex 1.061082e+001 4.121542e+000 4.000000e+000
      endloop
   endfacet
   facet normal 1.161583e-001 9.932307e-001 0.000000e+000
      outer loop
         vertex 1.061082e+001 4.121542e+000 4.000000e+000
         vertex 1.200000e+001 4.000000e+000 0.000000e+000
         vertex 1.061082e+001 4.121542e+000 0.000000e+000
      endloop
   endfacet
   facet normal 2.305519e-001 9.730600e-001 0.000000e+000
      outer loop
         vertex 1.061082e+001 4.121542e+000 4.000000e+000
         vertex 1.061082e+001 4.121542e+000 0.000000e+000
         vertex 9.263840e+000 4.482463e+000 4.000000e+000
      endloop
   endfacet
   facet normal 2.868663e-001 9.579706e-001 0.000000e+000
      outer loop
         vertex 9.263840e+000 4.482463e+000 4.000000e+000
         vertex 1.061082e+001 4.121542e+000 0.000000e+000
         vertex 9.263840e+000 4.482463e+000 0.000000e+000
      endloop
   endfacet
   facet normal 3.960194e-001 9.182422e-001 0.000000e+000
      outer loop
         vertex 9.263840e+000 4.482463e+000 4.000000e+000
         vertex 9.263840e+000 4.482463e+000 0.000000e+000
         vertex 8.000001e+000 5.071796e+000 4.000000e+000
      endloop
   endfacet
   facet normal 4.488580e-001 8.936031e-001 0.000000e+000
      outer loop
         vertex 8.000001e+000 5.071796e+000 4.000000e+000
         vertex 9.263840e+000 4.482463e+000 0.000000e+000
         vertex 8.000001e+000 5.071796e+000 0.000000e+000
      endloop
   endfacet
   facet normal 5.494540e-001 8.355240e-001 0.000000e+000
      outer loop
         vertex 8.000001e+000 5.071796e+000 4.000000e+000
         vertex 8.000001e+000 5.071796e+000 0.000000e+000
         vertex 6.857701e+000 5.871646e+000 4.000000e+000
      endloop
   endfacet
   facet normal 5.972114e-001 8.020838e-001 0.000000e+000
      outer loop
         vertex 6.857701e+000 5.871646e+000 4.000000e+000
         vertex 8.000001e+000 5.071796e+000 0.000000e+000
         vertex 6.857701e+000 5.871646e+000 0.000000e+000
      endloop
   endfacet
   facet normal 6.861938e-001 7.274188e-001 0.000000e+000
      outer loop
         vertex 6.857701e+000 5.871646e+000 4.000000e+000
         vertex 6.857701e+000 5.871646e+000 0.000000e+000
         vertex 5.871646e+000 6.857701e+000 4.000000e+000
      endloop
   endfacet
   facet normal 7.274188e-001 6.861938e-001 0.000000e+000
      outer loop
         vertex 5.871646e+000 6.857701e+000 4.000000e+000
         vertex 6.857701e+000 5.871646e+000 0.000000e+000
         vertex 5.871646e+000 6.857701e+000 0.000000e+000
      endloop
   endfacet
   facet normal 8.020838e-001 5.972114e-001 0.000000e+000
      outer loop
         vertex 5.871646e+000 6.857701e+000 4.000000e+000
         vertex 5.871646e+000 6.857701e+000 0.000000e+000
         vertex 5.071796e+000 8.000001e+000 4.000000e+000
      endloop
   endfacet
   facet normal 8.355240e-001 5.494540e-001 0.000000e+000
      outer loop
         vertex 5.071796e+000 8.000001e+000 4.000000e+000
         vertex 5.871646e+000 6.857701e+000 0.000000e+000
         vertex 5.071796e+000 8.000001e+000 0.000000e+000
      endloop
   endfacet
   facet normal 8.936031e-001 4.488580e-001 0.000000e+000
      outer loop
         vertex 5.071796e+000 8.000001e+000 4.000000e+000
         vertex 5.071796e+000 8.000001e+000 0.000000e+000
         vertex 4.482459e+000 9.263840e+000 4.000000e+000
      endloop
   endfacet
   facet normal 9.182422e-001 3.960194e-001 0.000000e+000
      outer loop
         vertex 4.482459e+000 9.263840e+000 4.000000e+000
         vertex 5.071796e+000 8.000001e+000 0.000000e+000
         vertex 4.482459e+000 9.263840e+000 0.000000e+000
      endloop
   endfacet
   facet normal 9.579706e-001 2.868663e-001 0.000000e+000
      outer loop
         vertex 4.482459e+000 9.263840e+000 4.000000e+000
         vertex 4.482459e+000 9.263840e+000 0.000000e+000
         vertex 4.121538e+000 1.061082e+001 4.000000e+000
      endloop
   endfacet
   facet normal 9.730600e-001 2.305519e-001 0.000000e+000
      outer loop
         vertex 4.121538e+000 1.061082e+001 4.000000e+000
         vertex 4.482459e+000 9.263840e+000 0.000000e+000
         vertex 4.121538e+000 1.061082e+001 0.000000e+000
      endloop
   endfacet
   facet normal 9.932307e-001 1.161583e-001 0.000000e+000
      outer loop
         vertex 4.121538e+000 1.061082e+001 4.000000e+000
         vertex 4.121538e+000 1.061082e+001 0.000000e+000
         vertex 4.000000e+000 1.200000e+001 4.000000e+000
      endloop
   endfacet
   facet normal 9.983119e-001 5.807913e-002 0.000000e+000
      outer loop
         vertex 4.000000e+000 1.200000e+001 4.000000e+000
         vertex 4.121538e+000 1.061082e+001 0.000000e+000
         vertex 4.000000e+000 1.200000e+001 0.000000e+000
      endloop
   endfacet
   facet normal -9.989090e-001 4.669962e-002 0.000000e+000
      outer loop
         vertex 1.200000e+001 6.144994e+001 4.000000e+000
         vertex 1.200000e+001 6.144994e+001 0.000000e+000
         vertex 1.185271e+001 5.935305e+001 4.000000e+000
      endloop
   endfacet
   facet normal -9.956288e-001 9.339926e-002 0.000000e+000
      outer loop
         vertex 1.185271e+001 5.935305e+001 4.000000e+000
         vertex 1.200000e+001 6.144994e+001 0.000000e+000
         vertex 1.185271e+001 5.935305e+001 0.000000e+000
      endloop
   endfacet
   facet normal -9.825722e-001 1.858814e-001 0.000000e+000
      outer loop
         vertex 1.185271e+001 5.935305e+001 4.000000e+000
         vertex 1.185271e+001 5.935305e+001 0.000000e+000
         vertex 1.141374e+001 5.729734e+001 4.000000e+000
      endloop
   endfacet
   facet normal -9.727959e-001 2.316639e-001 0.000000e+000
      outer loop
         vertex 1.141374e+001 5.729734e+001 4.000000e+000
         vertex 1.185271e+001 5.935305e+001 0.000000e+000
         vertex 1.141374e+001 5.729734e+001 0.000000e+000
      endloop
   endfacet
   facet normal -9.469392e-001 3.214127e-001 0.000000e+000
      outer loop
         vertex 1.141374e+001 5.729734e+001 4.000000e+000
         vertex 1.141374e+001 5.729734e+001 0.000000e+000
         vertex 1.069170e+001 5.532318e+001 4.000000e+000
      endloop
   endfacet
   facet normal -9.308589e-001 3.653791e-001 0.000000e+000
      outer loop
         vertex 1.069170e+001 5.532318e+001 4.000000e+000
         vertex 1.141374e+001 5.729734e+001 0.000000e+000
         vertex 1.069170e+001 5.532318e+001 0.000000e+000
      endloop
   endfacet
   facet normal -8.927098e-001 4.506320e-001 0.000000e+000
      outer loop
         vertex 1.069170e+001 5.532318e+001 4.000000e+000
         vertex 1.069170e+001 5.532318e+001 0.000000e+000
         vertex 9.700783e+000 5.346934e+001 4.000000e+000
      endloop
   endfacet
   facet normal -8.706411e-001 4.919187e-001 0.000000e+000
      outer loop
         vertex 9.700783e+000 5.346934e+001 4.000000e+000
         vertex 1.069170e+001 5.532318e+001 0.000000e+000
         vertex 9.700783e+000 5.346934e+001 0.000000e+000
      endloop
   endfacet
   facet normal -8.209490e-001 5.710016e-001 0.000000e+000
      outer loop
         vertex 9.700783e+000 5.346934e+001 4.000000e+000
         vertex 9.700783e+000 5.346934e+001 0.000000e+000
         vertex 8.460440e+000 5.177222e+001 4.000000e+000
      endloop
   endfacet
   facet normal -7.933254e-001 6.087978e-001 0.000000e+000
      outer loop
         vertex 8.460440e+000 5.177222e+001 4.000000e+000
         vertex 9.700783e+000 5.346934e+001 0.000000e+000
         vertex 8.460440e+000 5.177222e+001 0.000000e+000
      endloop
   endfacet
   facet normal -7.330659e-001 6.801575e-001 0.000000e+000
      outer loop
         vertex 8.460440e+000 5.177222e+001 4.000000e+000
         vertex 8.460440e+000 5.177222e+001 0.000000e+000
         vertex 6.995030e+000 5.026516e+001 4.000000e+000
      endloop
   endfacet
   facet normal -7.004300e-001 7.137211e-001 0.000000e+000
      outer loop
         vertex 6.995030e+000 5.026516e+001 4.000000e+000
         vertex 8.460440e+000 5.177222e+001 0.000000e+000
         vertex 6.995030e+000 5.026516e+001 0.000000e+000
      endloop
   endfacet
   facet normal -6.307867e-001 7.759563e-001 0.000000e+000
      outer loop
         vertex 6.995030e+000 5.026516e+001 4.000000e+000
         vertex 6.995030e+000 5.026516e+001 0.000000e+000
         vertex 5.333334e+000 4.897776e+001 4.000000e+000
      endloop
   endfacet
   facet normal -5.937791e-001 8.046280e-001 0.000000e+000
      outer loop
         vertex 5.333334e+000 4.897776e+001 4.000000e+000
         vertex 6.995030e+000 5.026516e+001 0.000000e+000
         vertex 5.333334e+000 4.897776e+001 0.000000e+000
      endloop
   endfacet
   facet normal -5.937792e-001 8.046280e-001 0.000000e+000
      outer loop
         vertex 5.333334e+000 4.897776e+001 4.000000e+000
         vertex 5.333334e+000 4.897776e+001 0.000000e+000
         vertex 4.003975e+000 4.794783e+001 0.000000e+000
      endloop
   endfacet
   facet normal -6.307867e-001 7.759563e-001 0.000000e+000
      outer loop
         vertex 5.333334e+000 4.897776e+001 4.000000e+000
         vertex 4.003975e+000 4.794783e+001 0.000000e+000
         vertex 4.003975e+000 4.794783e+001 4.000000e+000
      endloop
   endfacet
   facet normal -7.004300e-001 7.137211e-001 0.000000e+000
      outer loop
         vertex 4.003975e+000 4.794783e+001 4.000000e+000
         vertex 4.003975e+000 4.794783e+001 0.000000e+000
         vertex 2.831649e+000 4.674218e+001 0.000000e+000
      endloop
   endfacet
   facet normal -7.330659e-001 6.801575e-001 0.000000e+000
      outer loop
         vertex 4.003975e+000 4.794783e+001 4.000000e+000
         vertex 2.831649e+000 4.674218e+001 0.000000e+000
         vertex 2.831649e+000 4.674218e+001 4.000000e+000
      endloop
   endfacet
   facet normal -7.933254e-001 6.087978e-001 0.000000e+000
      outer loop
         vertex 2.831649e+000 4.674218e+001 4.000000e+000
         vertex 2.831649e+000 4.674218e+001 0.000000e+000
         vertex 1.839373e+000 4.538449e+001 0.000000e+000
      endloop
   endfacet
   facet normal -8.209489e-001 5.710016e-001 0.000000e+000
      outer loop
         vertex 2.831649e+000 4.674218e+001 4.000000e+000
         vertex 1.839373e+000 4.538449e+001 0.000000e+000
         vertex 1.839373e+000 4.538449e+001 4.000000e+000
      endloop
   endfacet
   facet normal -8.706411e-001 4.919187e-001 0.000000e+000
      outer loop
         vertex 1.839373e+000 4.538449e+001 4.000000e+000
         vertex 1.839373e+000 4.538449e+001 0.000000e+000
         vertex 1.046639e+000 4.390141e+001 0.000000e+000
      endloop
   endfacet
   facet normal -8.927098e-001 4.506320e-001 0.000000e+000
      outer loop
         vertex 1.839373e+000 4.538449e+001 4.000000e+000
         vertex 1.046639e+000 4.390141e+001 0.000000e+000
         vertex 1.046639e+000 4.390141e+001 4.000000e+000
      endloop
   endfacet
   facet normal -9.308589e-001 3.653791e-001 0.000000e+000
      outer loop
         vertex 1.046639e+000 4.390141e+001 4.000000e+000
         vertex 1.046639e+000 4.390141e+001 0.000000e+000
         vertex 4.690103e-001 4.232208e+001 0.000000e+000
      endloop
   endfacet
   facet normal -9.469392e-001 3.214127e-001 0.000000e+000
      outer loop
         vertex 1.046639e+000 4.390141e+001 4.000000e+000
         vertex 4.690103e-001 4.232208e+001 0.000000e+000
         vertex 4.690103e-001 4.232208e+001 4.000000e+000
      endloop
   endfacet
   facet normal -9.727959e-001 2.316639e-001 0.000000e+000
      outer loop
         vertex 4.690103e-001 4.232208e+001 4.000000e+000
         vertex 4.690103e-001 4.232208e+001 0.000000e+000
         vertex 1.178309e-001 4.067752e+001 0.000000e+000
      endloop
   endfacet
   facet normal -9.825722e-001 1.858814e-001 0.000000e+000
      outer loop
         vertex 4.690103e-001 4.232208e+001 4.000000e+000
         vertex 1.178309e-001 4.067752e+001 0.000000e+000
         vertex 1.178309e-001 4.067752e+001 4.000000e+000
      endloop
   endfacet
   facet normal -9.956288e-001 9.339926e-002 0.000000e+000
      outer loop
         vertex 1.178309e-001 4.067752e+001 4.000000e+000
         vertex 1.178309e-001 4.067752e+001 0.000000e+000
         vertex 0.000000e+000 3.900000e+001 0.000000e+000
      endloop
   endfacet
   facet normal -9.989090e-001 4.669962e-002 0.000000e+000
      outer loop
         vertex 1.178309e-001 4.067752e+001 4.000000e+000
         vertex 0.000000e+000 3.900000e+001 0.000000e+000
         vertex 0.000000e+000 3.900000e+001 4.000000e+000
      endloop
   endfacet
   facet normal -1.000000e+000 0.000000e+000 0.000000e+000
      outer loop
         vertex 0.000000e+000 1.200000e+001 4.000000e+000
         vertex 0.000000e+000 3.900000e+001 4.000000e+000
         vertex 0.000000e+000 1.200000e+001 0.000000e+000
      endloop
   endfacet
   facet normal -1.000000e+000 0.000000e+000 0.000000e+000
      outer loop
         vertex 0.000000e+000 1.200000e+001 0.000000e+000
         vertex 0.000000e+000 3.900000e+001 4.000000e+000
         vertex 0.000000e+000 3.900000e+001 0.000000e+000
      endloop
   endfacet
   facet normal -9.986320e-001 -5.228807e-002 0.000000e+000
      outer loop
         vertex 0.000000e+000 1.200000e+001 4.000000e+000
         vertex 0.000000e+000 1.200000e+001 0.000000e+000
         vertex 1.477413e-001 1.012279e+001 0.000000e+000
      endloop
   endfacet
   facet normal -9.945168e-001 -1.045761e-001 0.000000e+000
      outer loop
         vertex 0.000000e+000 1.200000e+001 4.000000e+000
         vertex 1.477413e-001 1.012279e+001 0.000000e+000
         vertex 1.477413e-001 1.012279e+001 4.000000e+000
      endloop
   endfacet
   facet normal -9.781576e-001 -2.078648e-001 0.000000e+000
      outer loop
         vertex 1.477413e-001 1.012279e+001 4.000000e+000
         vertex 1.477413e-001 1.012279e+001 0.000000e+000
         vertex 5.873218e-001 8.291796e+000 0.000000e+000
      endloop
   endfacet
   facet normal -9.659134e-001 -2.588653e-001 0.000000e+000
      outer loop
         vertex 1.477413e-001 1.012279e+001 4.000000e+000
         vertex 5.873218e-001 8.291796e+000 0.000000e+000
         vertex 5.873218e-001 8.291796e+000 4.000000e+000
      endloop
   endfacet
   facet normal -9.335976e-001 -3.583232e-001 0.000000e+000
      outer loop
         vertex 5.873218e-001 8.291796e+000 4.000000e+000
         vertex 5.873218e-001 8.291796e+000 0.000000e+000
         vertex 1.307923e+000 6.552115e+000 0.000000e+000
      endloop
   endfacet
   facet normal -9.135259e-001 -4.067805e-001 0.000000e+000
      outer loop
         vertex 5.873218e-001 8.291796e+000 4.000000e+000
         vertex 1.307923e+000 6.552115e+000 0.000000e+000
         vertex 1.307923e+000 6.552115e+000 4.000000e+000
      endloop
   endfacet
   facet normal -8.660494e-001 -4.999584e-001 0.000000e+000
      outer loop
         vertex 1.307923e+000 6.552115e+000 4.000000e+000
         vertex 1.307923e+000 6.552115e+000 0.000000e+000
         vertex 2.291795e+000 4.946582e+000 0.000000e+000
      endloop
   endfacet
   facet normal -8.386444e-001 -5.446792e-001 0.000000e+000
      outer loop
         vertex 1.307923e+000 6.552115e+000 4.000000e+000
         vertex 2.291795e+000 4.946582e+000 0.000000e+000
         vertex 2.291795e+000 4.946582e+000 4.000000e+000
      endloop
   endfacet
   facet normal -7.771761e-001 -6.292831e-001 0.000000e+000
      outer loop
         vertex 2.291795e+000 4.946582e+000 4.000000e+000
         vertex 2.291795e+000 4.946582e+000 0.000000e+000
         vertex 3.514718e+000 3.514722e+000 0.000000e+000
      endloop
   endfacet
   facet normal -7.431127e-001 -6.691663e-001 0.000000e+000
      outer loop
         vertex 2.291795e+000 4.946582e+000 4.000000e+000
         vertex 3.514718e+000 3.514722e+000 0.000000e+000
         vertex 3.514718e+000 3.514722e+000 4.000000e+000
      endloop
   endfacet
   facet normal -6.691663e-001 -7.431127e-001 0.000000e+000
      outer loop
         vertex 3.514718e+000 3.514722e+000 4.000000e+000
         vertex 3.514718e+000 3.514722e+000 0.000000e+000
         vertex 4.946579e+000 2.291799e+000 0.000000e+000
      endloop
   endfacet
   facet normal -6.292831e-001 -7.771761e-001 0.000000e+000
      outer loop
         vertex 3.514718e+000 3.514722e+000 4.000000e+000
         vertex 4.946579e+000 2.291799e+000 0.000000e+000
         vertex 4.946579e+000 2.291799e+000 4.000000e+000
      endloop
   endfacet
   facet normal -5.446792e-001 -8.386444e-001 0.000000e+000
      outer loop
         vertex 4.946579e+000 2.291799e+000 4.000000e+000
         vertex 4.946579e+000 2.291799e+000 0.000000e+000
         vertex 6.552115e+000 1.307927e+000 0.000000e+000
      endloop
   endfacet
   facet normal -4.999584e-001 -8.660494e-001 0.000000e+000
      outer loop
         vertex 4.946579e+000 2.291799e+000 4.000000e+000
         vertex 6.552115e+000 1.307927e+000 0.000000e+000
         vertex 6.552115e+000 1.307927e+000 4.000000e+000
      endloop
   endfacet
   facet normal -4.067805e-001 -9.135259e-001 0.000000e+000
      outer loop
         vertex 6.552115e+000 1.307927e+000 4.000000e+000
         vertex 6.552115e+000 1.307927e+000 0.000000e+000
         vertex 8.291796e+000 5.873218e-001 0.000000e+000
      endloop
   endfacet
   facet normal -3.583232e-001 -9.335976e-001 0.000000e+000
      outer loop
         vertex 6.552115e+000 1.307927e+000 4.000000e+000
         vertex 8.291796e+000 5.873218e-001 0.000000e+000
         vertex 8.291796e+000 5.873218e-001 4.000000e+000
      endloop
   endfacet
   facet normal -2.588653e-001 -9.659134e-001 0.000000e+000
      outer loop
         vertex 8.291796e+000 5.873218e-001 4.000000e+000
         vertex 8.291796e+000 5.873218e-001 0.000000e+000
         vertex 1.012279e+001 1.477450e-001 0.000000e+000
      endloop
   endfacet
   facet normal -2.078648e-001 -9.781575e-001 0.000000e+000
      outer loop
         vertex 8.291796e+000 5.873218e-001 4.000000e+000
         vertex 1.012279e+001 1.477450e-001 0.000000e+000
         vertex 1.012279e+001 1.477450e-001 4.000000e+000
      endloop
   endfacet
   facet normal -1.045761e-001 -9.945168e-001 0.000000e+000
      outer loop
         vertex 1.012279e+001 1.477450e-001 4.000000e+000
         vertex 1.012279e+001 1.477450e-001 0.000000e+000
         vertex 1.200000e+001 0.000000e+000 0.000000e+000
      endloop
   endfacet
   facet normal -5.228807e-002 -9.986320e-001 0.000000e+000
      outer loop
         vertex 1.012279e+001 1.477450e-001 4.000000e+000
         vertex 1.200000e+001 0.000000e+000 0.000000e+000
         vertex 1.200000e+001 0.000000e+000 4.000000e+000
      endloop
   endfacet
   facet normal 5.228807e-002 -9.986320e-001 0.000000e+000
      outer loop
         vertex 1.200000e+001 0.000000e+000 4.000000e+000
         vertex 1.200000e+001 0.000000e+000 0.000000e+000
         vertex 1.387721e+001 1.477450e-001 0.000000e+000
      endloop
   endfacet
   facet normal 1.045761e-001 -9.945168e-001 0.000000e+000
      outer loop
         vertex 1.200000e+001 0.000000e+000 4.000000e+000
         vertex 1.387721e+001 1.477450e-001 0.000000e+000
         vertex 1.387721e+001 1.477450e-001 4.000000e+000
      endloop
   endfacet
   facet normal 2.078648e-001 -9.781576e-001 0.000000e+000
      outer loop
         vertex 1.387721e+001 1.477450e-001 4.000000e+000
         vertex 1.387721e+001 1.477450e-001 0.000000e+000
         vertex 1.570820e+001 5.873218e-001 0.000000e+000
      endloop
   endfacet
   facet normal 2.588653e-001 -9.659134e-001 0.000000e+000
      outer loop
         vertex 1.387721e+001 1.477450e-001 4.000000e+000
         vertex 1.570820e+001 5.873218e-001 0.000000e+000
         vertex 1.570820e+001 5.873218e-001 4.000000e+000
      endloop
   endfacet
   facet normal 3.583232e-001 -9.335976e-001 0.000000e+000
      outer loop
         vertex 1.570820e+001 5.873218e-001 4.000000e+000
         vertex 1.570820e+001 5.873218e-001 0.000000e+000
         vertex 1.744789e+001 1.307927e+000 0.000000e+000
      endloop
   endfacet
   facet normal 4.067805e-001 -9.135259e-001 0.000000e+000
      outer loop
         vertex 1.570820e+001 5.873218e-001 4.000000e+000
         vertex 1.744789e+001 1.307927e+000 0.000000e+000
         vertex 1.744789e+001 1.307927e+000 4.000000e+000
      endloop
   endfacet
   facet normal 4.999584e-001 -8.660494e-001 0.000000e+000
      outer loop
         vertex 1.744789e+001 1.307927e+000 4.000000e+000
         vertex 1.744789e+001 1.307927e+000 0.000000e+000
         vertex 1.905342e+001 2.291799e+000 0.000000e+000
      endloop
   endfacet
   facet normal 5.446792e-001 -8.386444e-001 0.000000e+000
      outer loop
         vertex 1.744789e+001 1.307927e+000 4.000000e+000
         vertex 1.905342e+001 2.291799e+000 0.000000e+000
         vertex 1.905342e+001 2.291799e+000 4.000000e+000
      endloop
   endfacet
   facet normal 6.292831e-001 -7.771761e-001 0.000000e+000
      outer loop
         vertex 1.905342e+001 2.291799e+000 4.000000e+000
         vertex 1.905342e+001 2.291799e+000 0.000000e+000
         vertex 2.048528e+001 3.514722e+000 0.000000e+000
      endloop
   endfacet
   facet normal 6.691663e-001 -7.431127e-001 0.000000e+000
      outer loop
         vertex 1.905342e+001 2.291799e+000 4.000000e+000
         vertex 2.048528e+001 3.514722e+000 0.000000e+000
         vertex 2.048528e+001 3.514722e+000 4.000000e+000
      endloop
   endfacet
   facet normal 7.431127e-001 -6.691663e-001 0.000000e+000
      outer loop
         vertex 2.048528e+001 3.514722e+000 4.000000e+000
         vertex 2.048528e+001 3.514722e+000 0.000000e+000
         vertex 2.170820e+001 4.946582e+000 0.000000e+000
      endloop
   endfacet
   facet normal 7.771761e-001 -6.292831e-001 0.000000e+000
      outer loop
         vertex 2.048528e+001 3.514722e+000 4.000000e+000
         vertex 2.170820e+001 4.946582e+000 0.000000e+000
         vertex 2.170820e+001 4.946582e+000 4.000000e+000
      endloop
   endfacet
   facet normal 8.386444e-001 -5.446792e-001 0.000000e+000
      outer loop
         vertex 2.170820e+001 4.946582e+000 4.000000e+000
         vertex 2.170820e+001 4.946582e+000 0.000000e+000
         vertex 2.269208e+001 6.552115e+000 0.000000e+000
      endloop
   endfacet
   facet normal 8.660494e-001 -4.999584e-001 0.000000e+000
      outer loop
         vertex 2.170820e+001 4.946582e+000 4.000000e+000
         vertex 2.269208e+001 6.552115e+000 0.000000e+000
         vertex 2.269208e+001 6.552115e+000 4.000000e+000
      endloop
   endfacet
   facet normal 9.135259e-001 -4.067805e-001 0.000000e+000
      outer loop
         vertex 2.269208e+001 6.552115e+000 4.000000e+000
         vertex 2.269208e+001 6.552115e+000 0.000000e+000
         vertex 2.341268e+001 8.291796e+000 0.000000e+000
      endloop
   endfacet
   facet normal 9.335976e-001 -3.583232e-001 0.000000e+000
      outer loop
         vertex 2.269208e+001 6.552115e+000 4.000000e+000
         vertex 2.341268e+001 8.291796e+000 0.000000e+000
         vertex 2.341268e+001 8.291796e+000 4.000000e+000
      endloop
   endfacet
   facet normal 9.659134e-001 -2.588653e-001 0.000000e+000
      outer loop
         vertex 2.341268e+001 8.291796e+000 4.000000e+000
         vertex 2.341268e+001 8.291796e+000 0.000000e+000
         vertex 2.385226e+001 1.012279e+001 0.000000e+000
      endloop
   endfacet
   facet normal 9.781575e-001 -2.078648e-001 0.000000e+000
      outer loop
         vertex 2.341268e+001 8.291796e+000 4.000000e+000
         vertex 2.385226e+001 1.012279e+001 0.000000e+000
         vertex 2.385226e+001 1.012279e+001 4.000000e+000
      endloop
   endfacet
   facet normal 9.945168e-001 -1.045761e-001 0.000000e+000
      outer loop
         vertex 2.385226e+001 1.012279e+001 4.000000e+000
         vertex 2.385226e+001 1.012279e+001 0.000000e+000
         vertex 2.400000e+001 1.200000e+001 0.000000e+000
      endloop
   endfacet
   facet normal 9.986320e-001 -5.228807e-002 0.000000e+000
      outer loop
         vertex 2.385226e+001 1.012279e+001 4.000000e+000
         vertex 2.400000e+001 1.200000e+001 0.000000e+000
         vertex 2.400000e+001 1.200000e+001 4.000000e+000
      endloop
   endfacet
   facet normal 1.000000e+000 2.569961e-016 0.000000e+000
      outer loop
         vertex 2.400000e+001 6.344995e+001 4.000000e+000
         vertex 2.400000e+001 1.200000e+001 4.000000e+000
         vertex 2.400000e+001 6.344995e+001 0.000000e+000
      endloop
   endfacet
   facet normal 1.000000e+000 2.569961e-016 0.000000e+000
      outer loop
         vertex 2.400000e+001 6.344995e+001 0.000000e+000
         vertex 2.400000e+001 1.200000e+001 4.000000e+000
         vertex 2.400000e+001 1.200000e+001 0.000000e+000
      endloop
   endfacet
   facet normal -7.228015e-017 1.000000e+000 0.000000e+000
      outer loop
         vertex 2.300000e+001 6.344995e+001 3.000000e+000
         vertex 2.400000e+001 6.344995e+001 4.000000e+000
         vertex 2.300000e+001 6.344995e+001 1.000000e+000
      endloop
   endfacet
   facet normal -7.228015e-017 1.000000e+000 0.000000e+000
      outer loop
         vertex 2.300000e+001 6.344995e+001 1.000000e+000
         vertex 2.400000e+001 6.344995e+001 4.000000e+000
         vertex 2.400000e+001 6.344995e+001 0.000000e+000
      endloop
   endfacet
   facet normal -7.228015e-017 1.000000e+000 0.000000e+000
      outer loop
         vertex 2.300000e+001 6.344995e+001 1.000000e+000
         vertex 2.400000e+001 6.344995e+001 0.000000e+000
         vertex 1.300000e+001 6.344995e+001 1.000000e+000
      endloop
   endfacet
   facet normal -7.228015e-017 1.000000e+000 0.000000e+000
      outer loop
         vertex 1.300000e+001 6.344995e+001 1.000000e+000
         vertex 2.400000e+001 6.344995e+001 0.000000e+000
         vertex 1.200000e+001 6.344995e+001 0.000000e+000
      endloop
   endfacet
   facet normal -7.228015e-017 1.000000e+000 0.000000e+000
      outer loop
         vertex 1.300000e+001 6.344995e+001 1.000000e+000
         vertex 1.200000e+001 6.344995e+001 0.000000e+000
         vertex 1.300000e+001 6.344995e+001 3.000000e+000
      endloop
   endfacet
   facet normal -7.228015e-017 1.000000e+000 0.000000e+000
      outer loop
         vertex 1.300000e+001 6.344995e+001 3.000000e+000
         vertex 1.200000e+001 6.344995e+001 0.000000e+000
         vertex 1.200000e+001 6.344995e+001 4.000000e+000
      endloop
   endfacet
   facet normal -7.228015e-017 1.000000e+000 0.000000e+000
      outer loop
         vertex 1.300000e+001 6.344995e+001 3.000000e+000
         vertex 1.200000e+001 6.344995e+001 4.000000e+000
         vertex 2.300000e+001 6.344995e+001 3.000000e+000
      endloop
   endfacet
   facet normal -7.228015e-017 1.000000e+000 0.000000e+000
      outer loop
         vertex 2.300000e+001 6.344995e+001 3.000000e+000
         vertex 1.200000e+001 6.344995e+001 4.000000e+000
         vertex 2.400000e+001 6.344995e+001 4.000000e+000
      endloop
   endfacet
   facet normal -1.000000e+000 0.000000e+000 0.000000e+000
      outer loop
         vertex 1.200000e+001 6.144994e+001 4.000000e+000
         vertex 1.200000e+001 6.344995e+001 4.000000e+000
         vertex 1.200000e+001 6.144994e+001 0.000000e+000
      endloop
   endfacet
   facet normal -1.000000e+000 0.000000e+000 0.000000e+000
      outer loop
         vertex 1.200000e+001 6.144994e+001 0.000000e+000
         vertex 1.200000e+001 6.344995e+001 4.000000e+000
         vertex 1.200000e+001 6.344995e+001 0.000000e+000
      endloop
   endfacet
   facet normal 1.000000e+000 -2.569961e-016 0.000000e+000
      outer loop
         vertex 4.000000e+000 3.900000e+001 4.000000e+000
         vertex 4.000000e+000 1.200000e+001 4.000000e+000
         vertex 4.000000e+000 3.900000e+001 0.000000e+000
      endloop
   endfacet
   facet normal 1.000000e+000 -2.569961e-016 0.000000e+000
      outer loop
         vertex 4.000000e+000 3.900000e+001 0.000000e+000
         vertex 4.000000e+000 1.200000e+001 4.000000e+000
         vertex 4.000000e+000 1.200000e+001 0.000000e+000
      endloop
   endfacet
   facet normal 0.000000e+000 0.000000e+000 1.000000e+000
      outer loop
         vertex 1.338918e+001 4.687846e+001 4.000000e+000
         vertex 1.473616e+001 4.651754e+001 4.000000e+000
         vertex 2.400000e+001 6.344995e+001 4.000000e+000
      endloop
   endfacet
   facet normal 0.000000e+000 0.000000e+000 1.000000e+000
      outer loop
         vertex 1.714230e+001 5.871646e+000 4.000000e+000
         vertex 2.048528e+001 3.514722e+000 4.000000e+000
         vertex 1.812836e+001 6.857701e+000 4.000000e+000
      endloop
   endfacet
   facet normal 0.000000e+000 0.000000e+000 1.000000e+000
      outer loop
         vertex 1.812836e+001 6.857701e+000 4.000000e+000
         vertex 2.048528e+001 3.514722e+000 4.000000e+000
         vertex 2.170820e+001 4.946582e+000 4.000000e+000
      endloop
   endfacet
   facet normal 0.000000e+000 0.000000e+000 1.000000e+000
      outer loop
         vertex 1.812836e+001 6.857701e+000 4.000000e+000
         vertex 2.170820e+001 4.946582e+000 4.000000e+000
         vertex 1.892820e+001 8.000001e+000 4.000000e+000
      endloop
   endfacet
   facet normal 0.000000e+000 0.000000e+000 1.000000e+000
      outer loop
         vertex 1.892820e+001 8.000001e+000 4.000000e+000
         vertex 2.170820e+001 4.946582e+000 4.000000e+000
         vertex 2.269208e+001 6.552115e+000 4.000000e+000
      endloop
   endfacet
   facet normal 0.000000e+000 0.000000e+000 1.000000e+000
      outer loop
         vertex 1.892820e+001 8.000001e+000 4.000000e+000
         vertex 2.269208e+001 6.552115e+000 4.000000e+000
         vertex 1.951754e+001 9.263840e+000 4.000000e+000
      endloop
   endfacet
   facet normal 0.000000e+000 0.000000e+000 1.000000e+000
      outer loop
         vertex 1.951754e+001 9.263840e+000 4.000000e+000
         vertex 2.269208e+001 6.552115e+000 4.000000e+000
         vertex 2.341268e+001 8.291796e+000 4.000000e+000
      endloop
   endfacet
   facet normal 0.000000e+000 0.000000e+000 1.000000e+000
      outer loop
         vertex 1.951754e+001 9.263840e+000 4.000000e+000
         vertex 2.341268e+001 8.291796e+000 4.000000e+000
         vertex 1.987846e+001 1.061082e+001 4.000000e+000
      endloop
   endfacet
   facet normal 0.000000e+000 0.000000e+000 1.000000e+000
      outer loop
         vertex 1.987846e+001 1.061082e+001 4.000000e+000
         vertex 2.341268e+001 8.291796e+000 4.000000e+000
         vertex 2.385226e+001 1.012279e+001 4.000000e+000
      endloop
   endfacet
   facet normal 0.000000e+000 0.000000e+000 1.000000e+000
      outer loop
         vertex 1.987846e+001 1.061082e+001 4.000000e+000
         vertex 2.385226e+001 1.012279e+001 4.000000e+000
         vertex 2.000000e+001 1.200000e+001 4.000000e+000
      endloop
   endfacet
   facet normal 0.000000e+000 0.000000e+000 1.000000e+000
      outer loop
         vertex 2.000000e+001 1.200000e+001 4.000000e+000
         vertex 2.385226e+001 1.012279e+001 4.000000e+000
         vertex 2.400000e+001 1.200000e+001 4.000000e+000
      endloop
   endfacet
   facet normal 0.000000e+000 0.000000e+000 1.000000e+000
      outer loop
         vertex 2.000000e+001 1.200000e+001 4.000000e+000
         vertex 2.400000e+001 1.200000e+001 4.000000e+000
         vertex 2.000000e+001 3.900000e+001 4.000000e+000
      endloop
   endfacet
   facet normal 0.000000e+000 0.000000e+000 1.000000e+000
      outer loop
         vertex 2.000000e+001 3.900000e+001 4.000000e+000
         vertex 2.400000e+001 1.200000e+001 4.000000e+000
         vertex 2.400000e+001 6.344995e+001 4.000000e+000
      endloop
   endfacet
   facet normal 0.000000e+000 0.000000e+000 1.000000e+000
      outer loop
         vertex 2.000000e+001 3.900000e+001 4.000000e+000
         vertex 2.400000e+001 6.344995e+001 4.000000e+000
         vertex 1.987846e+001 4.038919e+001 4.000000e+000
      endloop
   endfacet
   facet normal 0.000000e+000 0.000000e+000 1.000000e+000
      outer loop
         vertex 5.071796e+000 4.300000e+001 4.000000e+000
         vertex 1.046639e+000 4.390141e+001 4.000000e+000
         vertex 4.482459e+000 4.173616e+001 4.000000e+000
      endloop
   endfacet
   facet normal 0.000000e+000 0.000000e+000 1.000000e+000
      outer loop
         vertex 4.482459e+000 4.173616e+001 4.000000e+000
         vertex 1.046639e+000 4.390141e+001 4.000000e+000
         vertex 4.690103e-001 4.232208e+001 4.000000e+000
      endloop
   endfacet
   facet normal 0.000000e+000 0.000000e+000 1.000000e+000
      outer loop
         vertex 4.482459e+000 4.173616e+001 4.000000e+000
         vertex 4.690103e-001 4.232208e+001 4.000000e+000
         vertex 4.121538e+000 4.038919e+001 4.000000e+000
      endloop
   endfacet
   facet normal 0.000000e+000 0.000000e+000 1.000000e+000
      outer loop
         vertex 4.121538e+000 4.038919e+001 4.000000e+000
         vertex 4.690103e-001 4.232208e+001 4.000000e+000
         vertex 1.178309e-001 4.067752e+001 4.000000e+000
      endloop
   endfacet
   facet normal 0.000000e+000 0.000000e+000 1.000000e+000
      outer loop
         vertex 4.121538e+000 4.038919e+001 4.000000e+000
         vertex 1.178309e-001 4.067752e+001 4.000000e+000
         vertex 4.000000e+000 3.900000e+001 4.000000e+000
      endloop
   endfacet
   facet normal 0.000000e+000 0.000000e+000 1.000000e+000
      outer loop
         vertex 4.000000e+000 3.900000e+001 4.000000e+000
         vertex 1.178309e-001 4.067752e+001 4.000000e+000
         vertex 0.000000e+000 3.900000e+001 4.000000e+000
      endloop
   endfacet
   facet normal 0.000000e+000 0.000000e+000 1.000000e+000
      outer loop
         vertex 4.000000e+000 3.900000e+001 4.000000e+000
         vertex 0.000000e+000 3.900000e+001 4.000000e+000
         vertex 4.000000e+000 1.200000e+001 4.000000e+000
      endloop
   endfacet
   facet normal 0.000000e+000 0.000000e+000 1.000000e+000
      outer loop
         vertex 4.000000e+000 1.200000e+001 4.000000e+000
         vertex 0.000000e+000 3.900000e+001 4.000000e+000
         vertex 0.000000e+000 1.200000e+001 4.000000e+000
      endloop
   endfacet
   facet normal 0.000000e+000 0.000000e+000 1.000000e+000
      outer loop
         vertex 4.000000e+000 1.200000e+001 4.000000e+000
         vertex 0.000000e+000 1.200000e+001 4.000000e+000
         vertex 4.121538e+000 1.061082e+001 4.000000e+000
      endloop
   endfacet
   facet normal 0.000000e+000 0.000000e+000 1.000000e+000
      outer loop
         vertex 4.121538e+000 1.061082e+001 4.000000e+000
         vertex 0.000000e+000 1.200000e+001 4.000000e+000
         vertex 1.477413e-001 1.012279e+001 4.000000e+000
      endloop
   endfacet
   facet normal 0.000000e+000 0.000000e+000 1.000000e+000
      outer loop
         vertex 4.121538e+000 1.061082e+001 4.000000e+000
         vertex 1.477413e-001 1.012279e+001 4.000000e+000
         vertex 4.482459e+000 9.263840e+000 4.000000e+000
      endloop
   endfacet
   facet normal 0.000000e+000 0.000000e+000 1.000000e+000
      outer loop
         vertex 4.482459e+000 9.263840e+000 4.000000e+000
         vertex 1.477413e-001 1.012279e+001 4.000000e+000
         vertex 5.873218e-001 8.291796e+000 4.000000e+000
      endloop
   endfacet
   facet normal 0.000000e+000 0.000000e+000 1.000000e+000
      outer loop
         vertex 4.482459e+000 9.263840e+000 4.000000e+000
         vertex 5.873218e-001 8.291796e+000 4.000000e+000
         vertex 5.071796e+000 8.000001e+000 4.000000e+000
      endloop
   endfacet
   facet normal 0.000000e+000 0.000000e+000 1.000000e+000
      outer loop
         vertex 5.071796e+000 8.000001e+000 4.000000e+000
         vertex 5.873218e-001 8.291796e+000 4.000000e+000
         vertex 1.307923e+000 6.552115e+000 4.000000e+000
      endloop
   endfacet
   facet normal 0.000000e+000 0.000000e+000 1.000000e+000
      outer loop
         vertex 5.071796e+000 8.000001e+000 4.000000e+000
         vertex 1.307923e+000 6.552115e+000 4.000000e+000
         vertex 5.871646e+000 6.857701e+000 4.000000e+000
      endloop
   endfacet
   facet normal 0.000000e+000 0.000000e+000 1.000000e+000
      outer loop
         vertex 1.473616e+001 4.651754e+001 4.000000e+000
         vertex 1.600000e+001 4.592821e+001 4.000000e+000
         vertex 2.400000e+001 6.344995e+001 4.000000e+000
      endloop
   endfacet
   facet normal 0.000000e+000 0.000000e+000 1.000000e+000
      outer loop
         vertex 2.400000e+001 6.344995e+001 4.000000e+000
         vertex 1.600000e+001 4.592821e+001 4.000000e+000
         vertex 1.714230e+001 4.512836e+001 4.000000e+000
      endloop
   endfacet
   facet normal 0.000000e+000 0.000000e+000 1.000000e+000
      outer loop
         vertex 2.400000e+001 6.344995e+001 4.000000e+000
         vertex 1.714230e+001 4.512836e+001 4.000000e+000
         vertex 1.812836e+001 4.414231e+001 4.000000e+000
      endloop
   endfacet
   facet normal 0.000000e+000 0.000000e+000 1.000000e+000
      outer loop
         vertex 1.307923e+000 6.552115e+000 4.000000e+000
         vertex 2.291795e+000 4.946582e+000 4.000000e+000
         vertex 5.871646e+000 6.857701e+000 4.000000e+000
      endloop
   endfacet
   facet normal 0.000000e+000 0.000000e+000 1.000000e+000
      outer loop
         vertex 5.871646e+000 6.857701e+000 4.000000e+000
         vertex 2.291795e+000 4.946582e+000 4.000000e+000
         vertex 3.514718e+000 3.514722e+000 4.000000e+000
      endloop
   endfacet
   facet normal 0.000000e+000 0.000000e+000 1.000000e+000
      outer loop
         vertex 5.871646e+000 6.857701e+000 4.000000e+000
         vertex 3.514718e+000 3.514722e+000 4.000000e+000
         vertex 6.857701e+000 5.871646e+000 4.000000e+000
      endloop
   endfacet
   facet normal 0.000000e+000 0.000000e+000 1.000000e+000
      outer loop
         vertex 6.857701e+000 5.871646e+000 4.000000e+000
         vertex 3.514718e+000 3.514722e+000 4.000000e+000
         vertex 4.946579e+000 2.291799e+000 4.000000e+000
      endloop
   endfacet
   facet normal 0.000000e+000 0.000000e+000 1.000000e+000
      outer loop
         vertex 6.857701e+000 5.871646e+000 4.000000e+000
         vertex 4.946579e+000 2.291799e+000 4.000000e+000
         vertex 8.000001e+000 5.071796e+000 4.000000e+000
      endloop
   endfacet
   facet normal 0.000000e+000 0.000000e+000 1.000000e+000
      outer loop
         vertex 8.000001e+000 5.071796e+000 4.000000e+000
         vertex 4.946579e+000 2.291799e+000 4.000000e+000
         vertex 6.552115e+000 1.307927e+000 4.000000e+000
      endloop
   endfacet
   facet normal 0.000000e+000 0.000000e+000 1.000000e+000
      outer loop
         vertex 8.000001e+000 5.071796e+000 4.000000e+000
         vertex 6.552115e+000 1.307927e+000 4.000000e+000
         vertex 9.263840e+000 4.482463e+000 4.000000e+000
      endloop
   endfacet
   facet normal 0.000000e+000 0.000000e+000 1.000000e+000
      outer loop
         vertex 9.263840e+000 4.482463e+000 4.000000e+000
         vertex 6.552115e+000 1.307927e+000 4.000000e+000
         vertex 8.291796e+000 5.873218e-001 4.000000e+000
      endloop
   endfacet
   facet normal 0.000000e+000 0.000000e+000 1.000000e+000
      outer loop
         vertex 9.263840e+000 4.482463e+000 4.000000e+000
         vertex 8.291796e+000 5.873218e-001 4.000000e+000
         vertex 1.061082e+001 4.121542e+000 4.000000e+000
      endloop
   endfacet
   facet normal 0.000000e+000 0.000000e+000 1.000000e+000
      outer loop
         vertex 1.061082e+001 4.121542e+000 4.000000e+000
         vertex 8.291796e+000 5.873218e-001 4.000000e+000
         vertex 1.012279e+001 1.477450e-001 4.000000e+000
      endloop
   endfacet
   facet normal 0.000000e+000 0.000000e+000 1.000000e+000
      outer loop
         vertex 1.061082e+001 4.121542e+000 4.000000e+000
         vertex 1.012279e+001 1.477450e-001 4.000000e+000
         vertex 1.200000e+001 4.000000e+000 4.000000e+000
      endloop
   endfacet
   facet normal 0.000000e+000 0.000000e+000 1.000000e+000
      outer loop
         vertex 1.200000e+001 4.000000e+000 4.000000e+000
         vertex 1.012279e+001 1.477450e-001 4.000000e+000
         vertex 1.200000e+001 0.000000e+000 4.000000e+000
      endloop
   endfacet
   facet normal 0.000000e+000 0.000000e+000 1.000000e+000
      outer loop
         vertex 1.200000e+001 4.000000e+000 4.000000e+000
         vertex 1.200000e+001 0.000000e+000 4.000000e+000
         vertex 1.338918e+001 4.121542e+000 4.000000e+000
      endloop
   endfacet
   facet normal 0.000000e+000 0.000000e+000 1.000000e+000
      outer loop
         vertex 1.338918e+001 4.121542e+000 4.000000e+000
         vertex 1.200000e+001 0.000000e+000 4.000000e+000
         vertex 1.387721e+001 1.477450e-001 4.000000e+000
      endloop
   endfacet
   facet normal 0.000000e+000 0.000000e+000 1.000000e+000
      outer loop
         vertex 1.338918e+001 4.121542e+000 4.000000e+000
         vertex 1.387721e+001 1.477450e-001 4.000000e+000
         vertex 1.473616e+001 4.482463e+000 4.000000e+000
      endloop
   endfacet
   facet normal 0.000000e+000 0.000000e+000 1.000000e+000
      outer loop
         vertex 1.473616e+001 4.482463e+000 4.000000e+000
         vertex 1.387721e+001 1.477450e-001 4.000000e+000
         vertex 1.570820e+001 5.873218e-001 4.000000e+000
      endloop
   endfacet
   facet normal 0.000000e+000 0.000000e+000 1.000000e+000
      outer loop
         vertex 1.473616e+001 4.482463e+000 4.000000e+000
         vertex 1.570820e+001 5.873218e-001 4.000000e+000
         vertex 1.600000e+001 5.071796e+000 4.000000e+000
      endloop
   endfacet
   facet normal 0.000000e+000 0.000000e+000 1.000000e+000
      outer loop
         vertex 1.600000e+001 5.071796e+000 4.000000e+000
         vertex 1.570820e+001 5.873218e-001 4.000000e+000
         vertex 1.744789e+001 1.307927e+000 4.000000e+000
      endloop
   endfacet
   facet normal 0.000000e+000 0.000000e+000 1.000000e+000
      outer loop
         vertex 1.600000e+001 5.071796e+000 4.000000e+000
         vertex 1.744789e+001 1.307927e+000 4.000000e+000
         vertex 1.714230e+001 5.871646e+000 4.000000e+000
      endloop
   endfacet
   facet normal 0.000000e+000 0.000000e+000 1.000000e+000
      outer loop
         vertex 1.714230e+001 5.871646e+000 4.000000e+000
         vertex 1.744789e+001 1.307927e+000 4.000000e+000
         vertex 1.905342e+001 2.291799e+000 4.000000e+000
      endloop
   endfacet
   facet normal 0.000000e+000 0.000000e+000 1.000000e+000
      outer loop
         vertex 1.714230e+001 5.871646e+000 4.000000e+000
         vertex 1.905342e+001 2.291799e+000 4.000000e+000
         vertex 2.048528e+001 3.514722e+000 4.000000e+000
      endloop
   endfacet
   facet normal 0.000000e+000 0.000000e+000 1.000000e+000
      outer loop
         vertex 1.812836e+001 4.414231e+001 4.000000e+000
         vertex 1.892820e+001 4.300000e+001 4.000000e+000
         vertex 2.400000e+001 6.344995e+001 4.000000e+000
      endloop
   endfacet
   facet normal 0.000000e+000 0.000000e+000 1.000000e+000
      outer loop
         vertex 2.400000e+001 6.344995e+001 4.000000e+000
         vertex 1.892820e+001 4.300000e+001 4.000000e+000
         vertex 1.951754e+001 4.173616e+001 4.000000e+000
      endloop
   endfacet
   facet normal 0.000000e+000 0.000000e+000 1.000000e+000
      outer loop
         vertex 2.400000e+001 6.344995e+001 4.000000e+000
         vertex 1.951754e+001 4.173616e+001 4.000000e+000
         vertex 1.987846e+001 4.038919e+001 4.000000e+000
      endloop
   endfacet
   facet normal 0.000000e+000 0.000000e+000 1.000000e+000
      outer loop
         vertex 2.400000e+001 6.344995e+001 4.000000e+000
         vertex 1.200000e+001 6.344995e+001 4.000000e+000
         vertex 1.338918e+001 4.687846e+001 4.000000e+000
      endloop
   endfacet
   facet normal 0.000000e+000 0.000000e+000 1.000000e+000
      outer loop
         vertex 1.338918e+001 4.687846e+001 4.000000e+000
         vertex 1.200000e+001 6.344995e+001 4.000000e+000
         vertex 1.200000e+001 6.144994e+001 4.000000e+000
      endloop
   endfacet
   facet normal 0.000000e+000 0.000000e+000 1.000000e+000
      outer loop
         vertex 1.338918e+001 4.687846e+001 4.000000e+000
         vertex 1.200000e+001 6.144994e+001 4.000000e+000
         vertex 1.200000e+001 4.700000e+001 4.000000e+000
      endloop
   endfacet
   facet normal 0.000000e+000 0.000000e+000 1.000000e+000
      outer loop
         vertex 1.200000e+001 4.700000e+001 4.000000e+000
         vertex 1.200000e+001 6.144994e+001 4.000000e+000
         vertex 1.185271e+001 5.935305e+001 4.000000e+000
      endloop
   endfacet
   facet normal 0.000000e+000 0.000000e+000 1.000000e+000
      outer loop
         vertex 1.061082e+001 4.687846e+001 4.000000e+000
         vertex 8.460440e+000 5.177222e+001 4.000000e+000
         vertex 9.263840e+000 4.651754e+001 4.000000e+000
      endloop
   endfacet
   facet normal 0.000000e+000 0.000000e+000 1.000000e+000
      outer loop
         vertex 9.263840e+000 4.651754e+001 4.000000e+000
         vertex 8.460440e+000 5.177222e+001 4.000000e+000
         vertex 6.995030e+000 5.026516e+001 4.000000e+000
      endloop
   endfacet
   facet normal 0.000000e+000 0.000000e+000 1.000000e+000
      outer loop
         vertex 9.263840e+000 4.651754e+001 4.000000e+000
         vertex 6.995030e+000 5.026516e+001 4.000000e+000
         vertex 8.000001e+000 4.592821e+001 4.000000e+000
      endloop
   endfacet
   facet normal 0.000000e+000 0.000000e+000 1.000000e+000
      outer loop
         vertex 8.000001e+000 4.592821e+001 4.000000e+000
         vertex 6.995030e+000 5.026516e+001 4.000000e+000
         vertex 5.333334e+000 4.897776e+001 4.000000e+000
      endloop
   endfacet
   facet normal 0.000000e+000 0.000000e+000 1.000000e+000
      outer loop
         vertex 8.000001e+000 4.592821e+001 4.000000e+000
         vertex 5.333334e+000 4.897776e+001 4.000000e+000
         vertex 6.857701e+000 4.512836e+001 4.000000e+000
      endloop
   endfacet
   facet normal 0.000000e+000 0.000000e+000 1.000000e+000
      outer loop
         vertex 6.857701e+000 4.512836e+001 4.000000e+000
         vertex 5.333334e+000 4.897776e+001 4.000000e+000
         vertex 4.003975e+000 4.794783e+001 4.000000e+000
      endloop
   endfacet
   facet normal 0.000000e+000 0.000000e+000 1.000000e+000
      outer loop
         vertex 6.857701e+000 4.512836e+001 4.000000e+000
         vertex 4.003975e+000 4.794783e+001 4.000000e+000
         vertex 5.871646e+000 4.414231e+001 4.000000e+000
      endloop
   endfacet
   facet normal 0.000000e+000 0.000000e+000 1.000000e+000
      outer loop
         vertex 5.871646e+000 4.414231e+001 4.000000e+000
         vertex 4.003975e+000 4.794783e+001 4.000000e+000
         vertex 2.831649e+000 4.674218e+001 4.000000e+000
      endloop
   endfacet
   facet normal 0.000000e+000 0.000000e+000 1.000000e+000
      outer loop
         vertex 5.871646e+000 4.414231e+001 4.000000e+000
         vertex 2.831649e+000 4.674218e+001 4.000000e+000
         vertex 5.071796e+000 4.300000e+001 4.000000e+000
      endloop
   endfacet
   facet normal 0.000000e+000 0.000000e+000 1.000000e+000
      outer loop
         vertex 5.071796e+000 4.300000e+001 4.000000e+000
         vertex 2.831649e+000 4.674218e+001 4.000000e+000
         vertex 1.839373e+000 4.538449e+001 4.000000e+000
      endloop
   endfacet
   facet normal 0.000000e+000 0.000000e+000 1.000000e+000
      outer loop
         vertex 5.071796e+000 4.300000e+001 4.000000e+000
         vertex 1.839373e+000 4.538449e+001 4.000000e+000
         vertex 1.046639e+000 4.390141e+001 4.000000e+000
      endloop
   endfacet
   facet normal 0.000000e+000 0.000000e+000 1.000000e+000
      outer loop
         vertex 1.185271e+001 5.935305e+001 4.000000e+000
         vertex 1.141374e+001 5.729734e+001 4.000000e+000
         vertex 1.200000e+001 4.700000e+001 4.000000e+000
      endloop
   endfacet
   facet normal 0.000000e+000 0.000000e+000 1.000000e+000
      outer loop
         vertex 1.200000e+001 4.700000e+001 4.000000e+000
         vertex 1.141374e+001 5.729734e+001 4.000000e+000
         vertex 1.069170e+001 5.532318e+001 4.000000e+000
      endloop
   endfacet
   facet normal 0.000000e+000 0.000000e+000 1.000000e+000
      outer loop
         vertex 1.200000e+001 4.700000e+001 4.000000e+000
         vertex 1.069170e+001 5.532318e+001 4.000000e+000
         vertex 1.061082e+001 4.687846e+001 4.000000e+000
      endloop
   endfacet
   facet normal 0.000000e+000 0.000000e+000 1.000000e+000
      outer loop
         vertex 1.061082e+001 4.687846e+001 4.000000e+000
         vertex 1.069170e+001 5.532318e+001 4.000000e+000
         vertex 9.700783e+000 5.346934e+001 4.000000e+000
      endloop
   endfacet
   facet normal 0.000000e+000 0.000000e+000 1.000000e+000
      outer loop
         vertex 1.061082e+001 4.687846e+001 4.000000e+000
         vertex 9.700783e+000 5.346934e+001 4.000000e+000
         vertex 8.460440e+000 5.177222e+001 4.000000e+000
      endloop
   endfacet
   facet normal 0.000000e+000 0.000000e+000 -1.000000e+000
      outer loop
         vertex 6.857701e+000 5.871646e+000 0.000000e+000
         vertex 4.946579e+000 2.291799e+000 0.000000e+000
         vertex 3.514718e+000 3.514722e+000 0.000000e+000
      endloop
   endfacet
   facet normal 0.000000e+000 0.000000e+000 -1.000000e+000
      outer loop
         vertex 6.857701e+000 5.871646e+000 0.000000e+000
         vertex 3.514718e+000 3.514722e+000 0.000000e+000
         vertex 5.871646e+000 6.857701e+000 0.000000e+000
      endloop
   endfacet
   facet normal 0.000000e+000 0.000000e+000 -1.000000e+000
      outer loop
         vertex 5.871646e+000 6.857701e+000 0.000000e+000
         vertex 3.514718e+000 3.514722e+000 0.000000e+000
         vertex 2.291795e+000 4.946582e+000 0.000000e+000
      endloop
   endfacet
   facet normal 0.000000e+000 0.000000e+000 -1.000000e+000
      outer loop
         vertex 5.871646e+000 6.857701e+000 0.000000e+000
         vertex 2.291795e+000 4.946582e+000 0.000000e+000
         vertex 5.071796e+000 8.000001e+000 0.000000e+000
      endloop
   endfacet
   facet normal 0.000000e+000 0.000000e+000 -1.000000e+000
      outer loop
         vertex 5.071796e+000 8.000001e+000 0.000000e+000
         vertex 2.291795e+000 4.946582e+000 0.000000e+000
         vertex 1.307923e+000 6.552115e+000 0.000000e+000
      endloop
   endfacet
   facet normal 0.000000e+000 0.000000e+000 -1.000000e+000
      outer loop
         vertex 5.071796e+000 8.000001e+000 0.000000e+000
         vertex 1.307923e+000 6.552115e+000 0.000000e+000
         vertex 4.482459e+000 9.263840e+000 0.000000e+000
      endloop
   endfacet
   facet normal 0.000000e+000 0.000000e+000 -1.000000e+000
      outer loop
         vertex 4.482459e+000 9.263840e+000 0.000000e+000
         vertex 1.307923e+000 6.552115e+000 0.000000e+000
         vertex 5.873218e-001 8.291796e+000 0.000000e+000
      endloop
   endfacet
   facet normal 0.000000e+000 0.000000e+000 -1.000000e+000
      outer loop
         vertex 4.482459e+000 9.263840e+000 0.000000e+000
         vertex 5.873218e-001 8.291796e+000 0.000000e+000
         vertex 4.121538e+000 1.061082e+001 0.000000e+000
      endloop
   endfacet
   facet normal 0.000000e+000 0.000000e+000 -1.000000e+000
      outer loop
         vertex 4.121538e+000 1.061082e+001 0.000000e+000
         vertex 5.873218e-001 8.291796e+000 0.000000e+000
         vertex 1.477413e-001 1.012279e+001 0.000000e+000
      endloop
   endfacet
   facet normal 0.000000e+000 0.000000e+000 -1.000000e+000
      outer loop
         vertex 4.121538e+000 1.061082e+001 0.000000e+000
         vertex 1.477413e-001 1.012279e+001 0.000000e+000
         vertex 4.000000e+000 1.200000e+001 0.000000e+000
      endloop
   endfacet
   facet normal 0.000000e+000 0.000000e+000 -1.000000e+000
      outer loop
         vertex 4.000000e+000 1.200000e+001 0.000000e+000
         vertex 1.477413e-001 1.012279e+001 0.000000e+000
         vertex 0.000000e+000 1.200000e+001 0.000000e+000
      endloop
   endfacet
   facet normal 0.000000e+000 0.000000e+000 -1.000000e+000
      outer loop
         vertex 4.000000e+000 1.200000e+001 0.000000e+000
         vertex 0.000000e+000 1.200000e+001 0.000000e+000
         vertex 4.000000e+000 3.900000e+001 0.000000e+000
      endloop
   endfacet
   facet normal 0.000000e+000 0.000000e+000 -1.000000e+000
      outer loop
         vertex 4.000000e+000 3.900000e+001 0.000000e+000
         vertex 0.000000e+000 1.200000e+001 0.000000e+000
         vertex 0.000000e+000 3.900000e+001 0.000000e+000
      endloop
   endfacet
   facet normal 0.000000e+000 0.000000e+000 -1.000000e+000
      outer loop
         vertex 4.000000e+000 3.900000e+001 0.000000e+000
         vertex 0.000000e+000 3.900000e+001 0.000000e+000
         vertex 4.121538e+000 4.038919e+001 0.000000e+000
      endloop
   endfacet
   facet normal 0.000000e+000 0.000000e+000 -1.000000e+000
      outer loop
         vertex 4.121538e+000 4.038919e+001 0.000000e+000
         vertex 0.000000e+000 3.900000e+001 0.000000e+000
         vertex 1.178309e-001 4.067752e+001 0.000000e+000
      endloop
   endfacet
   facet normal 0.000000e+000 0.000000e+000 -1.000000e+000
      outer loop
         vertex 4.121538e+000 4.038919e+001 0.000000e+000
         vertex 1.178309e-001 4.067752e+001 0.000000e+000
         vertex 4.482459e+000 4.173616e+001 0.000000e+000
      endloop
   endfacet
   facet normal 0.000000e+000 0.000000e+000 -1.000000e+000
      outer loop
         vertex 1.951754e+001 4.173616e+001 0.000000e+000
         vertex 1.892820e+001 4.300000e+001 0.000000e+000
         vertex 2.400000e+001 6.344995e+001 0.000000e+000
      endloop
   endfacet
   facet normal 0.000000e+000 0.000000e+000 -1.000000e+000
      outer loop
         vertex 2.400000e+001 6.344995e+001 0.000000e+000
         vertex 1.892820e+001 4.300000e+001 0.000000e+000
         vertex 1.812836e+001 4.414231e+001 0.000000e+000
      endloop
   endfacet
   facet normal 0.000000e+000 0.000000e+000 -1.000000e+000
      outer loop
         vertex 2.400000e+001 6.344995e+001 0.000000e+000
         vertex 1.812836e+001 4.414231e+001 0.000000e+000
         vertex 1.714230e+001 4.512836e+001 0.000000e+000
      endloop
   endfacet
   facet normal 0.000000e+000 0.000000e+000 -1.000000e+000
      outer loop
         vertex 2.400000e+001 1.200000e+001 0.000000e+000
         vertex 2.000000e+001 3.900000e+001 0.000000e+000
         vertex 2.400000e+001 6.344995e+001 0.000000e+000
      endloop
   endfacet
   facet normal 0.000000e+000 0.000000e+000 -1.000000e+000
      outer loop
         vertex 2.400000e+001 6.344995e+001 0.000000e+000
         vertex 2.000000e+001 3.900000e+001 0.000000e+000
         vertex 1.987846e+001 4.038919e+001 0.000000e+000
      endloop
   endfacet
   facet normal 0.000000e+000 0.000000e+000 -1.000000e+000
      outer loop
         vertex 2.400000e+001 6.344995e+001 0.000000e+000
         vertex 1.987846e+001 4.038919e+001 0.000000e+000
         vertex 1.951754e+001 4.173616e+001 0.000000e+000
      endloop
   endfacet
   facet normal 0.000000e+000 0.000000e+000 -1.000000e+000
      outer loop
         vertex 4.946579e+000 2.291799e+000 0.000000e+000
         vertex 6.857701e+000 5.871646e+000 0.000000e+000
         vertex 6.552115e+000 1.307927e+000 0.000000e+000
      endloop
   endfacet
   facet normal 0.000000e+000 0.000000e+000 -1.000000e+000
      outer loop
         vertex 6.552115e+000 1.307927e+000 0.000000e+000
         vertex 6.857701e+000 5.871646e+000 0.000000e+000
         vertex 8.000001e+000 5.071796e+000 0.000000e+000
      endloop
   endfacet
   facet normal 0.000000e+000 0.000000e+000 -1.000000e+000
      outer loop
         vertex 6.552115e+000 1.307927e+000 0.000000e+000
         vertex 8.000001e+000 5.071796e+000 0.000000e+000
         vertex 8.291796e+000 5.873218e-001 0.000000e+000
      endloop
   endfacet
   facet normal 0.000000e+000 0.000000e+000 -1.000000e+000
      outer loop
         vertex 8.291796e+000 5.873218e-001 0.000000e+000
         vertex 8.000001e+000 5.071796e+000 0.000000e+000
         vertex 9.263840e+000 4.482463e+000 0.000000e+000
      endloop
   endfacet
   facet normal 0.000000e+000 0.000000e+000 -1.000000e+000
      outer loop
         vertex 8.291796e+000 5.873218e-001 0.000000e+000
         vertex 9.263840e+000 4.482463e+000 0.000000e+000
         vertex 1.012279e+001 1.477450e-001 0.000000e+000
      endloop
   endfacet
   facet normal 0.000000e+000 0.000000e+000 -1.000000e+000
      outer loop
         vertex 1.012279e+001 1.477450e-001 0.000000e+000
         vertex 9.263840e+000 4.482463e+000 0.000000e+000
         vertex 1.061082e+001 4.121542e+000 0.000000e+000
      endloop
   endfacet
   facet normal 0.000000e+000 0.000000e+000 -1.000000e+000
      outer loop
         vertex 1.012279e+001 1.477450e-001 0.000000e+000
         vertex 1.061082e+001 4.121542e+000 0.000000e+000
         vertex 1.200000e+001 0.000000e+000 0.000000e+000
      endloop
   endfacet
   facet normal 0.000000e+000 0.000000e+000 -1.000000e+000
      outer loop
         vertex 1.200000e+001 0.000000e+000 0.000000e+000
         vertex 1.061082e+001 4.121542e+000 0.000000e+000
         vertex 1.200000e+001 4.000000e+000 0.000000e+000
      endloop
   endfacet
   facet normal 0.000000e+000 0.000000e+000 -1.000000e+000
      outer loop
         vertex 1.200000e+001 0.000000e+000 0.000000e+000
         vertex 1.200000e+001 4.000000e+000 0.000000e+000
         vertex 1.387721e+001 1.477450e-001 0.000000e+000
      endloop
   endfacet
   facet normal 0.000000e+000 0.000000e+000 -1.000000e+000
      outer loop
         vertex 1.387721e+001 1.477450e-001 0.000000e+000
         vertex 1.200000e+001 4.000000e+000 0.000000e+000
         vertex 1.338918e+001 4.121542e+000 0.000000e+000
      endloop
   endfacet
   facet normal 0.000000e+000 0.000000e+000 -1.000000e+000
      outer loop
         vertex 1.387721e+001 1.477450e-001 0.000000e+000
         vertex 1.338918e+001 4.121542e+000 0.000000e+000
         vertex 1.570820e+001 5.873218e-001 0.000000e+000
      endloop
   endfacet
   facet normal 0.000000e+000 0.000000e+000 -1.000000e+000
      outer loop
         vertex 1.570820e+001 5.873218e-001 0.000000e+000
         vertex 1.338918e+001 4.121542e+000 0.000000e+000
         vertex 1.473616e+001 4.482463e+000 0.000000e+000
      endloop
   endfacet
   facet normal 0.000000e+000 0.000000e+000 -1.000000e+000
      outer loop
         vertex 1.570820e+001 5.873218e-001 0.000000e+000
         vertex 1.473616e+001 4.482463e+000 0.000000e+000
         vertex 1.744789e+001 1.307927e+000 0.000000e+000
      endloop
   endfacet
   facet normal 0.000000e+000 0.000000e+000 -1.000000e+000
      outer loop
         vertex 1.744789e+001 1.307927e+000 0.000000e+000
         vertex 1.473616e+001 4.482463e+000 0.000000e+000
         vertex 1.600000e+001 5.071796e+000 0.000000e+000
      endloop
   endfacet
   facet normal 0.000000e+000 0.000000e+000 -1.000000e+000
      outer loop
         vertex 1.744789e+001 1.307927e+000 0.000000e+000
         vertex 1.600000e+001 5.071796e+000 0.000000e+000
         vertex 1.905342e+001 2.291799e+000 0.000000e+000
      endloop
   endfacet
   facet normal 0.000000e+000 0.000000e+000 -1.000000e+000
      outer loop
         vertex 1.905342e+001 2.291799e+000 0.000000e+000
         vertex 1.600000e+001 5.071796e+000 0.000000e+000
         vertex 1.714230e+001 5.871646e+000 0.000000e+000
      endloop
   endfacet
   facet normal 0.000000e+000 0.000000e+000 -1.000000e+000
      outer loop
         vertex 1.905342e+001 2.291799e+000 0.000000e+000
         vertex 1.714230e+001 5.871646e+000 0.000000e+000
         vertex 2.048528e+001 3.514722e+000 0.000000e+000
      endloop
   endfacet
   facet normal 0.000000e+000 0.000000e+000 -1.000000e+000
      outer loop
         vertex 2.048528e+001 3.514722e+000 0.000000e+000
         vertex 1.714230e+001 5.871646e+000 0.000000e+000
         vertex 1.812836e+001 6.857701e+000 0.000000e+000
      endloop
   endfacet
   facet normal 0.000000e+000 0.000000e+000 -1.000000e+000
      outer loop
         vertex 2.048528e+001 3.514722e+000 0.000000e+000
         vertex 1.812836e+001 6.857701e+000 0.000000e+000
         vertex 2.170820e+001 4.946582e+000 0.000000e+000
      endloop
   endfacet
   facet normal 0.000000e+000 0.000000e+000 -1.000000e+000
      outer loop
         vertex 2.170820e+001 4.946582e+000 0.000000e+000
         vertex 1.812836e+001 6.857701e+000 0.000000e+000
         vertex 2.269208e+001 6.552115e+000 0.000000e+000
      endloop
   endfacet
   facet normal 0.000000e+000 0.000000e+000 -1.000000e+000
      outer loop
         vertex 2.269208e+001 6.552115e+000 0.000000e+000
         vertex 1.812836e+001 6.857701e+000 0.000000e+000
         vertex 1.892820e+001 8.000001e+000 0.000000e+000
      endloop
   endfacet
   facet normal 0.000000e+000 0.000000e+000 -1.000000e+000
      outer loop
         vertex 2.269208e+001 6.552115e+000 0.000000e+000
         vertex 1.892820e+001 8.000001e+000 0.000000e+000
         vertex 2.341268e+001 8.291796e+000 0.000000e+000
      endloop
   endfacet
   facet normal 0.000000e+000 0.000000e+000 -1.000000e+000
      outer loop
         vertex 2.341268e+001 8.291796e+000 0.000000e+000
         vertex 1.892820e+001 8.000001e+000 0.000000e+000
         vertex 1.951754e+001 9.263840e+000 0.000000e+000
      endloop
   endfacet
   facet normal 0.000000e+000 0.000000e+000 -1.000000e+000
      outer loop
         vertex 2.341268e+001 8.291796e+000 0.000000e+000
         vertex 1.951754e+001 9.263840e+000 0.000000e+000
         vertex 2.385226e+001 1.012279e+001 0.000000e+000
      endloop
   endfacet
   facet normal 0.000000e+000 0.000000e+000 -1.000000e+000
      outer loop
         vertex 2.385226e+001 1.012279e+001 0.000000e+000
         vertex 1.951754e+001 9.263840e+000 0.000000e+000
         vertex 1.987846e+001 1.061082e+001 0.000000e+000
      endloop
   endfacet
   facet normal 0.000000e+000 0.000000e+000 -1.000000e+000
      outer loop
         vertex 2.385226e+001 1.012279e+001 0.000000e+000
         vertex 1.987846e+001 1.061082e+001 0.000000e+000
         vertex 2.400000e+001 1.200000e+001 0.000000e+000
      endloop
   endfacet
   facet normal 0.000000e+000 0.000000e+000 -1.000000e+000
      outer loop
         vertex 2.400000e+001 1.200000e+001 0.000000e+000
         vertex 1.987846e+001 1.061082e+001 0.000000e+000
         vertex 2.000000e+001 1.200000e+001 0.000000e+000
      endloop
   endfacet
   facet normal 0.000000e+000 0.000000e+000 -1.000000e+000
      outer loop
         vertex 2.400000e+001 1.200000e+001 0.000000e+000
         vertex 2.000000e+001 1.200000e+001 0.000000e+000
         vertex 2.000000e+001 3.900000e+001 0.000000e+000
      endloop
   endfacet
   facet normal 0.000000e+000 0.000000e+000 -1.000000e+000
      outer loop
         vertex 1.714230e+001 4.512836e+001 0.000000e+000
         vertex 1.600000e+001 4.592821e+001 0.000000e+000
         vertex 2.400000e+001 6.344995e+001 0.000000e+000
      endloop
   endfacet
   facet normal 0.000000e+000 0.000000e+000 -1.000000e+000
      outer loop
         vertex 2.400000e+001 6.344995e+001 0.000000e+000
         vertex 1.600000e+001 4.592821e+001 0.000000e+000
         vertex 1.473616e+001 4.651754e+001 0.000000e+000
      endloop
   endfacet
   facet normal 0.000000e+000 0.000000e+000 -1.000000e+000
      outer loop
         vertex 2.400000e+001 6.344995e+001 0.000000e+000
         vertex 1.473616e+001 4.651754e+001 0.000000e+000
         vertex 1.200000e+001 6.344995e+001 0.000000e+000
      endloop
   endfacet
   facet normal 0.000000e+000 0.000000e+000 -1.000000e+000
      outer loop
         vertex 1.200000e+001 6.344995e+001 0.000000e+000
         vertex 1.473616e+001 4.651754e+001 0.000000e+000
         vertex 1.338918e+001 4.687846e+001 0.000000e+000
      endloop
   endfacet
   facet normal 0.000000e+000 0.000000e+000 -1.000000e+000
      outer loop
         vertex 1.200000e+001 6.344995e+001 0.000000e+000
         vertex 1.338918e+001 4.687846e+001 0.000000e+000
         vertex 1.200000e+001 6.144994e+001 0.000000e+000
      endloop
   endfacet
   facet normal 0.000000e+000 0.000000e+000 -1.000000e+000
      outer loop
         vertex 1.200000e+001 6.144994e+001 0.000000e+000
         vertex 1.338918e+001 4.687846e+001 0.000000e+000
         vertex 1.200000e+001 4.700000e+001 0.000000e+000
      endloop
   endfacet
   facet normal 0.000000e+000 0.000000e+000 -1.000000e+000
      outer loop
         vertex 1.200000e+001 6.144994e+001 0.000000e+000
         vertex 1.200000e+001 4.700000e+001 0.000000e+000
         vertex 1.185271e+001 5.935305e+001 0.000000e+000
      endloop
   endfacet
   facet normal 0.000000e+000 0.000000e+000 -1.000000e+000
      outer loop
         vertex 1.185271e+001 5.935305e+001 0.000000e+000
         vertex 1.200000e+001 4.700000e+001 0.000000e+000
         vertex 1.141374e+001 5.729734e+001 0.000000e+000
      endloop
   endfacet
   facet normal 0.000000e+000 0.000000e+000 -1.000000e+000
      outer loop
         vertex 1.061082e+001 4.687846e+001 0.000000e+000
         vertex 9.700783e+000 5.346934e+001 0.000000e+000
         vertex 1.200000e+001 4.700000e+001 0.000000e+000
      endloop
   endfacet
   facet normal 0.000000e+000 0.000000e+000 -1.000000e+000
      outer loop
         vertex 1.200000e+001 4.700000e+001 0.000000e+000
         vertex 9.700783e+000 5.346934e+001 0.000000e+000
         vertex 1.069170e+001 5.532318e+001 0.000000e+000
      endloop
   endfacet
   facet normal 0.000000e+000 0.000000e+000 -1.000000e+000
      outer loop
         vertex 1.200000e+001 4.700000e+001 0.000000e+000
         vertex 1.069170e+001 5.532318e+001 0.000000e+000
         vertex 1.141374e+001 5.729734e+001 0.000000e+000
      endloop
   endfacet
   facet normal 0.000000e+000 0.000000e+000 -1.000000e+000
      outer loop
         vertex 1.178309e-001 4.067752e+001 0.000000e+000
         vertex 4.690103e-001 4.232208e+001 0.000000e+000
         vertex 4.482459e+000 4.173616e+001 0.000000e+000
      endloop
   endfacet
   facet normal 0.000000e+000 0.000000e+000 -1.000000e+000
      outer loop
         vertex 4.482459e+000 4.173616e+001 0.000000e+000
         vertex 4.690103e-001 4.232208e+001 0.000000e+000
         vertex 1.046639e+000 4.390141e+001 0.000000e+000
      endloop
   endfacet
   facet normal 0.000000e+000 0.000000e+000 -1.000000e+000
      outer loop
         vertex 4.482459e+000 4.173616e+001 0.000000e+000
         vertex 1.046639e+000 4.390141e+001 0.000000e+000
         vertex 5.071796e+000 4.300000e+001 0.000000e+000
      endloop
   endfacet
   facet normal 0.000000e+000 0.000000e+000 -1.000000e+000
      outer loop
         vertex 5.071796e+000 4.300000e+001 0.000000e+000
         vertex 1.046639e+000 4.390141e+001 0.000000e+000
         vertex 1.839373e+000 4.538449e+001 0.000000e+000
      endloop
   endfacet
   facet normal 0.000000e+000 0.000000e+000 -1.000000e+000
      outer loop
         vertex 5.071796e+000 4.300000e+001 0.000000e+000
         vertex 1.839373e+000 4.538449e+001 0.000000e+000
         vertex 5.871646e+000 4.414231e+001 0.000000e+000
      endloop
   endfacet
   facet normal 0.000000e+000 0.000000e+000 -1.000000e+000
      outer loop
         vertex 5.871646e+000 4.414231e+001 0.000000e+000
         vertex 1.839373e+000 4.538449e+001 0.000000e+000
         vertex 2.831649e+000 4.674218e+001 0.000000e+000
      endloop
   endfacet
   facet normal 0.000000e+000 0.000000e+000 -1.000000e+000
      outer loop
         vertex 5.871646e+000 4.414231e+001 0.000000e+000
         vertex 2.831649e+000 4.674218e+001 0.000000e+000
         vertex 6.857701e+000 4.512836e+001 0.000000e+000
      endloop
   endfacet
   facet normal 0.000000e+000 0.000000e+000 -1.000000e+000
      outer loop
         vertex 6.857701e+000 4.512836e+001 0.000000e+000
         vertex 2.831649e+000 4.674218e+001 0.000000e+000
         vertex 4.003975e+000 4.794783e+001 0.000000e+000
      endloop
   endfacet
   facet normal 0.000000e+000 0.000000e+000 -1.000000e+000
      outer loop
         vertex 6.857701e+000 4.512836e+001 0.000000e+000
         vertex 4.003975e+000 4.794783e+001 0.000000e+000
         vertex 8.000001e+000 4.592821e+001 0.000000e+000
      endloop
   endfacet
   facet normal 0.000000e+000 0.000000e+000 -1.000000e+000
      outer loop
         vertex 8.000001e+000 4.592821e+001 0.000000e+000
         vertex 4.003975e+000 4.794783e+001 0.000000e+000
         vertex 5.333334e+000 4.897776e+001 0.000000e+000
      endloop
   endfacet
   facet normal 0.000000e+000 0.000000e+000 -1.000000e+000
      outer loop
         vertex 8.000001e+000 4.592821e+001 0.000000e+000
         vertex 5.333334e+000 4.897776e+001 0.000000e+000
         vertex 9.263840e+000 4.651754e+001 0.000000e+000
      endloop
   endfacet
   facet normal 0.000000e+000 0.000000e+000 -1.000000e+000
      outer loop
         vertex 9.263840e+000 4.651754e+001 0.000000e+000
         vertex 5.333334e+000 4.897776e+001 0.000000e+000
         vertex 6.995030e+000 5.026516e+001 0.000000e+000
      endloop
   endfacet
   facet normal 0.000000e+000 0.000000e+000 -1.000000e+000
      outer loop
         vertex 9.263840e+000 4.651754e+001 0.000000e+000
         vertex 6.995030e+000 5.026516e+001 0.000000e+000
         vertex 1.061082e+001 4.687846e+001 0.000000e+000
      endloop
   endfacet
   facet normal 0.000000e+000 0.000000e+000 -1.000000e+000
      outer loop
         vertex 1.061082e+001 4.687846e+001 0.000000e+000
         vertex 6.995030e+000 5.026516e+001 0.000000e+000
         vertex 8.460440e+000 5.177222e+001 0.000000e+000
      endloop
   endfacet
   facet normal 0.000000e+000 0.000000e+000 -1.000000e+000
      outer loop
         vertex 1.061082e+001 4.687846e+001 0.000000e+000
         vertex 8.460440e+000 5.177222e+001 0.000000e+000
         vertex 9.700783e+000 5.346934e+001 0.000000e+000
      endloop
   endfacet
   facet normal 1.000000e+000 0.000000e+000 0.000000e+000
      outer loop
         vertex 2.300000e+001 7.844995e+001 3.000000e+000
         vertex 2.300000e+001 6.344995e+001 3.000000e+000
         vertex 2.300000e+001 7.844995e+001 1.000000e+000
      endloop
   endfacet
   facet normal 1.000000e+000 0.000000e+000 0.000000e+000
      outer loop
         vertex 2.300000e+001 7.844995e+001 1.000000e+000
         vertex 2.300000e+001 6.344995e+001 3.000000e+000
         vertex 2.300000e+001 6.344995e+001 1.000000e+000
      endloop
   endfacet
   facet normal 0.000000e+000 1.000000e+000 0.000000e+000
      outer loop
         vertex 1.300000e+001 7.844995e+001 3.000000e+000
         vertex 2.300000e+001 7.844995e+001 3.000000e+000
         vertex 1.300000e+001 7.844995e+001 1.000000e+000
      endloop
   endfacet
   facet normal 0.000000e+000 1.000000e+000 0.000000e+000
      outer loop
         vertex 1.300000e+001 7.844995e+001 1.000000e+000
         vertex 2.300000e+001 7.844995e+001 3.000000e+000
         vertex 2.300000e+001 7.844995e+001 1.000000e+000
      endloop
   endfacet
   facet normal -1.000000e+000 0.000000e+000 0.000000e+000
      outer loop
         vertex 1.300000e+001 6.344995e+001 3.000000e+000
         vertex 1.300000e+001 7.844995e+001 3.000000e+000
         vertex 1.300000e+001 6.344995e+001 1.000000e+000
      endloop
   endfacet
   facet normal -1.000000e+000 0.000000e+000 0.000000e+000
      outer loop
         vertex 1.300000e+001 6.344995e+001 1.000000e+000
         vertex 1.300000e+001 7.844995e+001 3.000000e+000
         vertex 1.300000e+001 7.844995e+001 1.000000e+000
      endloop
   endfacet
   facet normal 0.000000e+000 0.000000e+000 1.000000e+000
      outer loop
         vertex 1.300000e+001 7.844995e+001 3.000000e+000
         vertex 1.300000e+001 6.344995e+001 3.000000e+000
         vertex 2.300000e+001 7.844995e+001 3.000000e+000
      endloop
   endfacet
   facet normal 0.000000e+000 0.000000e+000 1.000000e+000
      outer loop
         vertex 2.300000e+001 7.844995e+001 3.000000e+000
         vertex 1.300000e+001 6.344995e+001 3.000000e+000
         vertex 2.300000e+001 6.344995e+001 3.000000e+000
      endloop
   endfacet
   facet normal 0.000000e+000 0.000000e+000 -1.000000e+000
      outer loop
         vertex 1.300000e+001 6.344995e+001 1.000000e+000
         vertex 1.300000e+001 7.844995e+001 1.000000e+000
         vertex 2.300000e+001 6.344995e+001 1.000000e+000
      endloop
   endfacet
   facet normal 0.000000e+000 0.000000e+000 -1.000000e+000
      outer loop
         vertex 2.300000e+001 6.344995e+001 1.000000e+000
         vertex 1.300000e+001 7.844995e+001 1.000000e+000
         vertex 2.300000e+001 7.844995e+001 1.000000e+000
      endloop
   endfacet
endsolid